<?xml version="1.0" encoding="UTF-8"?> <svg xmlns="http://www.w3.org/2000/svg" id="a" data-name="Camada 1" width="292.57" height="88.78" viewBox="0 0 292.57 88.78"><defs><style> .b { fill: #fff; } </style></defs><path class="b" d="M80.81,67.01l-.08-.27c.03.09.05.18.08.26-.11-.33-.21-.62-.35-1.06-.14-.44-.15-.45-.16-.46.02.09.13.45.33,1.02.06.17.12.33.18.5h0M145.76,1.76c1.31.48,2.39.69,3.7.88-2.58-.2-2.87.14-2.87.42-.81-.51-1.73-.79-3.17-.96,1.51-.09,2.05-.19,2.15-.41.05.02.13.05.18.07M137.14.34c1.15.17,1.96.25,3.21.32-1.87.05-2.26.22-2.4.37-1.04-.24-1.88-.32-3.12-.3,1.41-.17,2.05-.28,2.14-.42.05,0,.11.02.16.02M138.3,1.5c1.22.37,2.28.45,2.85.49-1.7.21-2.07.42-2.11.68-.92-.37-1.77-.52-3.03-.53,1.35-.3,1.97-.44,2.14-.69.04.01.1.03.14.04M139.47,3.39c1.32.48,2.16.65,3.49.7-2.53.3-2.65.86-2.43,1.37-.88-.78-1.94-1.1-3.66-1.11,1.59-.42,2.29-.62,2.4-1.02.06.02.13.05.19.07M129.46.87c1.04.08,1.78.08,2.93.02-1.21.21-1.9.43-2.38.75-.82-.22-1.93-.18-3.71.11,2.03-.46,2.92-.68,3.01-.89.04,0,.1,0,.14.01M130.51,2.05c1.16.23,1.95.29,3.16.23-1.42.3-2.11.62-2.3,1.07-.99-.38-2.03-.44-3.6-.23,1.77-.54,2.5-.79,2.57-1.11.05.01.11.02.16.03M131.77,3.91c1.32.59,2.88.52,3.63.49-2.35.51-2.63,1.06-2.59,1.52-1.14-.65-2.16-.82-3.76-.6,1.73-.63,2.51-.99,2.56-1.49l.17.08M80.81,67.01h0s0,0,0,0M80.81,66.97c-.05-.61-.06-.89-.06-.93,0,.02,0,.03.03.36.02.33.02.39.04.62h0s0,0,0,0M80.81,67.01h0s0-.01,0-.01h0s0,0,0,0h0c-.04-.26-.09-.67-.14-1.1-.07-.61-.1-1.02-.09-1.1.01.04.02.08.07.61.04.44.09.98.16,1.56h0M80.97,66.71c.03-.05.09-.17.11-.19,0,.02-.12.24-.16.31-.04.06-.06.11-.09.15h0s-.02.04-.02.04h0s0,0,0,0h0s0,0,0,0h0s0,0,0,0l.02-.03h0c.1-.21.11-.22.14-.27ZM195.22,39.35c-.05-.15-.1-.3-.15-.45q-.02-.07-.09-.29l.24.75ZM195.53,40.39s0,0,0,.02l.2.71s0,.05,0,.05c-.03-.04-.09-.24-.13-.36-.08-.3-.09-.4-.09-.42h0ZM196.04,42.39v-.02s.19.74.17.8c-.03-.02-.07-.17-.09-.26-.07-.3-.08-.47-.08-.52ZM196.51,44.67s0-.05,0-.06h0c.04.06.13.69.1.78,0,0,0,0,0,0-.02-.02-.05-.17-.06-.19-.03-.18-.05-.36-.05-.54h0ZM192.31,32.1h0s.45.94.45.94l.21.45c-.26-.56-.6-1.1-.87-1.66-.07-.14-.08-.18-.09-.21.05.02.2.31.29.49ZM196.91,47.15s0-.05,0-.06c.02.03.08.54.04.57,0-.01-.01-.02-.02-.06-.03-.2-.03-.44-.03-.45h0ZM193.01,33.69c.2.35.59,1.2.57,1.25-.09-.06-.5-.66-.76-1.29-.08-.19-.09-.26-.07-.3.05,0,.14.11.27.34h0ZM193.67,35.53c.27.34.65,1.26.51,1.25-.1,0-.44-.44-.65-1-.15-.41-.05-.4,0-.37.01,0,.06.04.14.13ZM194.31,37.7c.33.21.65,1.18.39,1.2-.14,0-.33-.29-.49-.74-.18-.58.05-.48.07-.47,0,0,.02,0,.03.01h0ZM194.95,40.16c.25-.02.53.96.33,1.17-.1.11-.29-.05-.42-.5-.14-.53.02-.67.09-.67h0ZM189.88,27.76c-.54-.8-1.16-1.57-1.68-2.39-.07-.11-.08-.14-.09-.16.07.05.26.28.54.68.37.56.87,1.31,1.22,1.87h0ZM195.52,42.94c.2-.15.35.42.32.81-.03.29-.14.43-.25.3-.03-.04-.1-.14-.16-.37-.13-.57.08-.73.09-.74ZM189.54,27.4c.56.74,1.18,1.77,1.17,1.86-.11-.08-1.28-1.48-1.75-2.33-.09-.16-.1-.21-.09-.25.11-.02.58.6.68.72h0ZM196,45.93c.09-.14.17-.01.22.14.15.51-.02,1.02-.13.97-.04-.02-.11-.12-.16-.34-.09-.49.03-.72.07-.78ZM190.35,29.14c.6.71,1.16,1.75,1,1.76-.14,0-1.06-.97-1.52-1.89-.05-.11-.18-.4-.03-.36.1.02.31.21.54.49h0ZM196.37,49.15c.05-.13.11-.1.15-.04.15.27,0,.99-.12.94-.04-.02-.07-.12-.09-.22-.05-.39.05-.65.06-.68h0ZM191.13,31.25c.69.68,1.18,1.8.95,1.84-.16.03-.91-.56-1.36-1.59-.23-.58-.05-.56.08-.5.06.03.16.09.32.25h0ZM196.64,52.54c.04-.1.07-.12.09-.08.03.05.02.22-.02.49,0,0-.04.15-.08.14-.02,0-.03-.06-.03-.09-.02-.17.02-.41.04-.46h0ZM191.89,33.81c.6.36,1.29,1.64.82,1.74-.25.05-.79-.3-1.15-1.23-.28-.78.18-.59.27-.54.02,0,.04.02.06.03h0ZM185.5,21.7l.07.09c-.76-.91-1.59-1.78-2.39-2.66-.05-.05-.06-.06-.08-.09.02.01.04.04.06.05.7.78,1.66,1.81,2.33,2.61h0ZM192.7,36.68c.6.19,1.07,1.46.62,1.68-.26.13-.67-.19-.93-.93-.29-.93.3-.76.31-.76h0ZM184.88,21.03c.83.91,1.63,1.93,1.74,2.09-.11-.05-2.39-2.5-2.78-3.02-.07-.09-.08-.12-.11-.17,0,0,.02,0,.02-.01.2.12.73.67,1.13,1.11h0ZM193.4,39.89c.5-.03,1.01,1.07.57,1.55-.28.3-.63.02-.84-.69-.22-.81.22-.86.27-.86h0ZM185.53,22.15c.81.81,1.77,2,1.81,2.23,0,0-.01,0-.02,0-.21-.09-1.9-1.61-2.63-2.72-.11-.18-.13-.24-.1-.27.17,0,.71.53.93.75h0ZM194.06,43.34c.44-.19.73.75.52,1.3-.14.35-.43.47-.66.1-.06-.11-.11-.23-.14-.36-.18-.82.28-1.04.28-1.04h0ZM186.45,23.94c1.03.96,1.89,2.2,1.57,2.16-.29-.03-1.77-1.26-2.39-2.37-.08-.15-.24-.45-.01-.4.12.03.4.2.83.6h0ZM194.55,46.91c.26-.22.53.35.5.89-.03.52-.34.86-.53.69-.13-.11-.2-.41-.2-.44-.14-.81.23-1.14.23-1.14h0ZM187.36,26.16c.99.78,1.91,2.22,1.42,2.22-.37,0-1.56-.87-2.14-2.03-.21-.47-.16-.65.16-.53.09.03.27.12.57.35ZM194.98,50.83c.19-.21.34,0,.37.29.07.57-.27,1.18-.45,1.06-.07-.04-.14-.21-.18-.41-.08-.54.17-.86.25-.94h0ZM188.34,28.95c1.01.62,1.86,2.16,1.23,2.22-.43.05-1.37-.59-1.85-1.68-.36-.89.18-.74.35-.68.06.02.17.08.27.14h0ZM178.08,14.37l2.48,2.16c-.81-.75-1.47-1.3-2.77-2.4q-.09-.07-.09-.08l.39.32ZM195.19,54.78c.11-.17.18-.2.21-.08.07.24-.1,1.24-.3,1.17-.04-.02-.1-.1-.13-.28-.01-.18,0-.47.21-.81h0ZM195.21,58.96c.05-.08.08-.1.09-.1,0,.17-.08.34-.18.54,0-.02-.01-.05-.01-.07,0-.16.09-.34.11-.37ZM189.32,32.1c.96.42,1.74,2.11,1.06,2.29-.32.08-1.14-.17-1.65-1.46-.37-1.02.2-1,.6-.83ZM180.09,16.12c.91.8,1.9,1.77,2.05,1.97-.21-.06-3.17-2.64-3.59-3.09-.04-.04-.09-.1-.11-.15,0,0,.01,0,.02-.01.34.15,1.33,1.02,1.63,1.28h0ZM190.14,35.71c.91.14,1.64,1.67,1,2.1-.37.25-1.08.07-1.5-1.11-.33-1.08.41-1,.5-.98h0ZM180.82,17.12c1.05.87,2.16,2.03,2.09,2.18-.26.03-2.77-1.99-3.44-2.85-.08-.1-.24-.32-.06-.29.29.05,1.14.75,1.4.97h0ZM191.01,39.55c.81-.04,1.38,1.46.76,2.03-.38.35-.97.13-1.27-.84-.3-1.14.47-1.19.5-1.19h0ZM181.56,18.61c1.37,1.02,2.49,2.34,2.12,2.36-.34.02-2.49-1.42-3.29-2.63-.09-.15-.29-.47.03-.4.17.04.56.23,1.13.66h0ZM191.69,43.56c.63-.15,1.22,1.25.78,1.87,0,.01-.85.91-1.26-.59-.24-1.08.41-1.26.49-1.28ZM182.59,20.76c1.3.86,2.49,2.38,1.9,2.43-.52.05-2.2-.97-2.98-2.32-.34-.63,0-.63.33-.52.15.05.4.16.76.4h0ZM192.26,47.89c.56-.23.94.81.67,1.47-.12.31-.66.95-1.04.19-.05-.11-.09-.23-.12-.36-.16-.81.25-1.21.48-1.31h0ZM183.67,23.52c1.34.76,2.49,2.42,1.8,2.58-.53.12-2.04-.68-2.78-2.12-.45-.98.26-.79.59-.66.09.03.26.11.4.19h0ZM192.7,52.36c.44-.26.7.42.53,1.06-.11.43-.57,1.01-.83.65-.05-.06-.14-.24-.19-.49-.13-.85.46-1.21.48-1.22ZM176.61,13.19c.24.19.26.21.28.23-.2-.1-3.94-2.66-4.49-3.09-.08-.07-.09-.08-.12-.11.15.02,1.13.67,1.68,1.05l2.65,1.93ZM184.65,26.68c1.13.5,2.65,2.52,1.67,2.83-.56.18-1.82-.48-2.46-1.87-.61-1.54.64-1.03.79-.96h0ZM192.91,56.87c.3-.29.38-.09.4.12.04.51-.31,1.63-.62,1.38-.04-.03-.15-.17-.19-.42-.05-.51.2-.86.41-1.07ZM185.86,30.58c1.32.41,2.29,2.3,1.35,2.66-.55.21-1.63-.15-2.21-1.58-.54-1.5.8-1.1.86-1.08h0ZM192.89,61.53c.17-.18.21-.06.22.03.03.31-.21,1.08-.44.94-.06-.04-.09-.11-.1-.21-.02-.37.27-.7.32-.76h0ZM174.91,12.15c1.45.95,2.79,2.05,2.78,2.22-.2.06-3.5-2.02-4.38-2.92-.13-.14-.15-.17-.13-.21.24-.06,1.58.81,1.73.91h0ZM186.84,34.68c1.17.13,2.13,2.18,1.27,2.71-.41.25-1.44.25-2.02-1.36-.45-1.44.63-1.36.75-1.34h0ZM175.8,13.48c1.65,1.01,3.02,2.3,2.68,2.38-.39.09-3.27-1.56-4.23-2.75-.11-.15-.33-.45.1-.35.29.07.84.34,1.46.72h0ZM187.71,39.18c1.12-.1,1.97,1.58,1.19,2.36-.5.5-1.43.44-1.88-.97-.33-1.24.52-1.37.7-1.39h0ZM176.67,15.28c1.43.8,3.42,2.57,2.67,2.69-.61.09-3.1-1.32-3.9-2.49-.43-.7-.09-.69.27-.61.33.08.74.29.96.42h0ZM188.53,43.86c1.01-.21,1.56,1.37.98,2.16-.45.61-1.39.57-1.72-.62-.3-1.31.7-1.52.74-1.53h0ZM178.05,17.94c1.61.85,3.05,2.67,2.24,2.82-.63.12-2.74-.92-3.6-2.35-.48-.88.03-.97.61-.79.22.07.52.2.75.32h0ZM189.13,48.75c.82-.27,1.36.8.87,1.73-.32.62-1.07.98-1.45.11-.05-.11-.08-.22-.11-.34-.22-1.17.6-1.47.69-1.5ZM169.96,8.74l.48.28c-1.91-1.12-4.79-2.55-4.82-2.57l-.05-.03c1.32.69,3.11,1.57,4.39,2.31ZM179.14,21.02c1.51.59,3.11,2.51,2.14,2.89-.75.3-2.54-.45-3.37-2.05-.57-1.2.46-1.11,1.09-.9.04.02.1.04.14.05h0ZM189.49,53.68c.62-.34,1.07.46.89,1.22-.16.64-.9,1.26-1.29.72-.02-.03-.15-.22-.21-.55-.15-.95.53-1.35.61-1.39ZM180.26,24.83c1.7.45,3.17,2.55,2.15,3.08-.75.39-2.32-.15-3.15-1.92-.64-1.54.83-1.2,1-1.15h0ZM168.41,7.91c1.45.76,2.94,1.67,3.07,1.86,0,0-.01.01-.01.02-.36-.04-4.22-2.03-5.08-2.67-.11-.09-.13-.11-.15-.15,0,0,0-.01.01-.02.31,0,1.85.8,2.16.96h0ZM189.75,58.76c.5-.28.76.35.58,1-.15.55-.74,1.13-1.04.73-.03-.04-.12-.18-.16-.44-.09-.9.61-1.3.62-1.3h0ZM181.61,29.11c1.73.34,2.78,2.81,1.79,3.27-.73.33-2.15-.17-2.81-1.75-.53-1.46.39-1.64,1.02-1.51h0ZM189.67,63.87c.12-.1.49-.39.46.34-.02.68-.59,1.13-.82.9-.08-.08-.1-.22-.11-.27-.03-.57.28-.82.47-.97ZM169.33,8.89c1.93.96,3.42,2.05,3.16,2.18-.26.13-3.97-1.52-5.14-2.65-.12-.13-.28-.31-.04-.31.28,0,1.09.31,2.02.77h0ZM182.69,33.8c1.49.11,2.58,2.17,1.56,2.95-.66.5-1.99.22-2.57-1.35-.53-1.69.95-1.6,1.01-1.6h0ZM170.47,10.46c2.07,1,3.41,2.27,2.79,2.41-.63.14-3.76-1.31-4.71-2.45-.32-.44-.22-.62.3-.55.22.03.71.15,1.63.59ZM183.74,38.73c1.54.03,2.12,2.3,1.38,2.99-.42.38-1.79.59-2.39-1.22-.38-1.41.46-1.78,1.01-1.77h0ZM171.44,12.64c2.26.94,3.71,2.51,2.84,2.73-.75.19-3.45-.85-4.58-2.42-.53-.84.19-.79.88-.61.18.05.47.14.86.3h0ZM184.68,43.97c1.08-.08,2.05,1.47.97,2.68-.73.81-1.67.44-2.02-.79-.3-1.45.69-1.86,1.06-1.89h0ZM172.61,15.43c2.22.81,3.68,2.59,2.78,2.97-.97.41-3.59-.89-4.38-2.18-.81-1.5,1.01-.98,1.39-.86.06.02.15.05.22.07ZM185.14,49.38c1.03-.3,1.75,1.06,1.1,2.11-.48.79-1.54,1.07-1.95-.18-.03-.08-.04-.14-.05-.17-.27-1.4.85-1.74.9-1.75ZM161.17,4.51l3.61,1.53s.03.02.04.02c-.11-.03-5.04-1.98-5.79-2.31-.11-.05-.12-.06-.14-.08.03,0,.06,0,.3.09l1.98.73ZM173.94,18.94c2.14.55,3.62,2.7,2.6,3.23-.86.44-3.1-.34-4.02-2.05-.82-1.74,1.4-1.18,1.43-1.18ZM185.62,54.89c.97-.4,1.37.79.98,1.64-.36.79-1.37,1.26-1.76.33-.06-.14-.09-.27-.1-.31-.18-1.22.86-1.66.88-1.67ZM162.12,5.04c1.7.65,3.6,1.57,3.69,1.8-.21.22-4.7-1.42-5.91-2.27-.1-.08-.27-.2-.07-.21.24,0,1.03.2,2.29.68h0ZM175.32,23.13c1.79.35,3.61,2.65,2.28,3.42-.89.51-2.75.04-3.65-1.86-.69-1.63.76-1.68,1.38-1.56h0ZM185.81,60.37c.84-.39,1.04.57.84,1.22-.21.65-1.09,1.27-1.46.71-.06-.09-.14-.24-.18-.47-.11-1.01.77-1.43.8-1.45h0ZM176.66,27.91c1.87.26,3.3,2.53,2.13,3.37-.83.6-2.64.23-3.46-1.69-.72-1.95,1.25-1.7,1.33-1.68h0ZM185.67,65.93c.51-.29.8.15.67.7-.13.56-.88,1.3-1.17.88-.09-.14-.15-.3-.17-.47-.04-.67.54-1.04.66-1.11h0ZM163.08,6.11c2.29.82,3.92,1.93,3.43,2.13-.58.23-4.41-1.08-5.59-2.19-.32-.34-.21-.49.34-.43.24.03.79.12,1.82.49h0ZM177.89,33.06c1.79.09,3.07,2.49,1.82,3.38-.81.57-2.42.27-3.09-1.51-.62-1.94,1.2-1.87,1.27-1.87h0ZM164.23,7.91c2.69.88,4.12,2.24,3.39,2.49-.79.28-4.22-.75-5.51-2.23-.42-.55-.13-.75.88-.58.34.06.81.18,1.24.32h0ZM179.04,38.51c1.79-.07,2.41,2.38,1.52,3.26-.64.64-2.25.56-2.85-1.22-.45-1.61.85-2.02,1.34-2.04h0ZM165.44,10.34c2.45.67,4.24,2.38,3.34,2.82-.91.45-4.13-.53-5.25-2.09-.87-1.36,1.4-.86,1.66-.8.08.02.18.04.25.06h0ZM179.66,44.17c1.62-.3,2.54,1.6,1.69,2.72-.71.93-2.26.95-2.77-.79-.37-1.58.83-1.89,1.08-1.93h0ZM166.71,13.35c2.56.61,4.18,2.78,2.92,3.31-.77.33-3.49-.15-4.7-2.08-.61-1.1.14-1.62,1.78-1.22h0ZM180.47,49.99c1.34-.32,2.06,1.22,1.4,2.31-.58.97-1.97,1.28-2.48-.19-.02-.06-.04-.13-.06-.19-.31-1.57,1.07-1.92,1.13-1.93ZM157.39,3.17c.83.27.91.32.95.35-.31.06-5.48-1.38-6.37-1.72-.04-.02-.09-.04-.13-.06,0,0,0-.02,0-.03.11,0,.39.03,1.62.34l3.93,1.12ZM168.12,17.25c2.57.51,4.14,2.72,2.93,3.44-.66.39-1.78.17-2.37-.07-1.64-.67-2.29-1.83-2.29-1.84-.97-2.01,1.45-1.58,1.73-1.53h0ZM180.87,55.95c1.22-.34,1.78.94,1.16,1.97-.48.8-1.71,1.36-2.17.06,0-.03-.04-.11-.07-.24-.21-1.38.95-1.75,1.08-1.78h0ZM169.67,21.65c2.11.39,3.92,3.09,2.62,3.9-.88.55-3.23.11-4.25-1.96-.7-1.6.29-2.19,1.63-1.94ZM155.42,2.86c2.43.62,4.31,1.44,3.94,1.6-.43.18-5.04-.82-6.47-1.76-.13-.1-.32-.24,0-.27.37-.04,1.39.14,2.54.43h0ZM180.99,61.79c.95-.38,1.54.71,1.12,1.6-.3.63-1.47,1.43-1.94.4-.09-.2-.12-.35-.13-.43-.13-1.1.84-1.52.95-1.57ZM171.02,26.88c2.1.09,3.73,2.69,2.35,3.75-.95.73-2.99.44-3.91-1.66-.81-2.17,1.53-2.09,1.56-2.09h0ZM180.94,67.61c.61-.27,1.13.46.84,1.19-.19.48-.63.72-.98.84-.32.11-.46-.1-.57-.3-.03-.06-.08-.17-.1-.34-.06-.93.79-1.39.8-1.39h0ZM156.63,4.08c2.43.59,4.35,1.69,3.78,1.97-.73.35-4.9-.44-6.32-1.71-.53-.54.17-.6.85-.55.46.03,1.07.14,1.68.28ZM172.18,32.39c1.91.02,3.78,2.44,2.36,3.74-.97.88-3.02.28-3.72-1.52-.54-1.64.54-2.23,1.36-2.22h0ZM157.59,5.93c2.13.43,4.85,1.86,3.67,2.45-1.09.55-4.68-.32-5.9-1.67-.74-.93.67-1.02,1.79-.86.13.02.31.05.44.08h0ZM173.48,38.24c2-.1,3.09,2.16,2.03,3.29-.81.86-2.76,1.09-3.53-1.13-.57-2.04,1.41-2.16,1.5-2.16h0ZM158.81,8.49c3.05.51,4.65,2.44,3.53,3.01-.86.44-4.17.07-5.57-1.81-.65-1,.2-1.51,2.04-1.2h0ZM174.36,44.25c2.03-.17,2.55,2.38,1.74,3.32-.7.82-2.57.93-3.18-1.07-.39-1.65.72-2.19,1.44-2.25h0ZM149.14,1.11c-.6-.11-2-.36-3.93-.6l3.93.6ZM160.32,11.92c2.79.34,4.71,2.43,3.5,3.23-1.08.7-4.33.09-5.5-1.74-1.02-1.84,1.97-1.5,2-1.49ZM175.13,50.44c1.63-.24,2.14,1.94,1.35,3.02-.65.88-2.31,1.07-2.79-.79-.31-1.44.58-2.1,1.44-2.23h0ZM161.77,15.97c2.82.3,4.52,2.58,3.25,3.58-.97.77-3.94.42-5.22-1.83-1-2.06,1.85-1.77,1.97-1.76h0ZM175.39,56.82c1.5-.4,2.18,1.05,1.6,2-.53.88-2.15,1.82-2.75.04-.03-.09-.05-.16-.06-.22-.22-1.37.97-1.75,1.21-1.82h0ZM163.05,20.64c2.66.17,4.83,2.94,3.18,4.07-1.18.8-3.81.03-4.71-1.77-1.05-2.43,1.42-2.31,1.53-2.3h0ZM175.53,63.11c1.36-.38,1.78.88,1.34,1.63-.44.76-1.88,1.6-2.37.29-.06-.15-.08-.25-.09-.32-.13-1.15.82-1.52,1.12-1.6ZM164.78,26.19c2.48,0,4.11,2.66,2.89,3.85-1.04,1-3.62.71-4.61-1.52-.87-2.3,1.61-2.33,1.72-2.33h0ZM175.66,69.05c1.02-.26,1.18.8.7,1.55-.38.59-1.52,1.24-1.85.22-.02-.06-.03-.12-.04-.19-.06-.92.7-1.46,1.19-1.58h0ZM165.92,32.08c2.48-.23,4.04,2.36,2.78,3.65-1.08,1.11-3.38,1.03-4.34-1.34-.66-2,1.18-2.28,1.56-2.31ZM167.32,38.2c2.22-.18,3.47,2.26,2.3,3.54-.98,1.07-3.26.98-4.01-1.15-.62-2.18,1.61-2.38,1.71-2.39h0ZM151.93,7.41c2.36.15,5.27,1.73,3.83,2.82-1.33,1.02-4.93.3-6.12-1.22-.85-1.25.86-1.69,2.29-1.6ZM168.08,44.62c2.05-.36,3.28,1.68,2.33,3.03-.81,1.14-3.06,1.5-3.78-.79-.44-1.76,1-2.16,1.45-2.24ZM142.08.19l.84.07c-1.74-.15-4.64-.26-6.15-.26,1.59.05,3.72.07,5.32.19h0ZM153.43,10.97c3.19.15,5.1,2.26,3.66,3.29-1.13.8-4.52.61-5.95-1.52-1.08-1.91,2.16-1.78,2.3-1.77h0ZM168.79,51.09c2.01-.43,2.86,1.49,2.04,2.67-.81,1.17-2.9,1.65-3.5-.56-.33-1.64,1.15-2.05,1.46-2.11h0ZM155.12,15.1c3.14.21,4.55,2.82,3.24,3.84-1.1.86-4.35.43-5.47-1.51-.81-1.66.54-2.44,2.23-2.33h0ZM169.52,57.37c1.54-.29,2.2,1.78,1.28,2.88-.55.67-2.45,1.32-2.91-.65-.27-1.82,1.43-2.19,1.63-2.23ZM156.43,20.18c2.98-.01,4.79,2.6,3.33,3.87-.91.8-3.55,1.11-5.14-1.15q-.12-.02-.23-.24c-1.05-2.4,1.72-2.48,2.04-2.48h0ZM169.51,63.91c1.43-.37,2,1.1,1.43,2.08-.47.81-2.16,1.53-2.7.05-.04-.1-.07-.21-.09-.31-.17-1.35,1.09-1.75,1.35-1.82h0ZM158.11,25.64c2.66-.02,4.29,3.15,2.85,4.34-1.03.85-3.8.8-4.86-1.51-.55-1.4-.03-2.82,2.01-2.83h0ZM169.37,70.35c1.11-.24,1.65.9,1.07,1.69-.41.56-2.01,1.33-2.33-.12,0-.03-.01-.07-.02-.11-.09-1.15,1.27-1.46,1.28-1.46h0ZM159.53,31.79c2.7-.1,3.84,3.03,2.63,4.24-.83.84-3.6,1.02-4.58-1.43-.6-1.87.78-2.77,1.95-2.82ZM160.55,38.22c2.46-.28,3.7,2.66,2.64,3.89-.92,1.06-3.62,1.19-4.48-1.16-.53-1.8.66-2.59,1.83-2.73ZM144.89,7c2.79-.06,5.25,1.51,4.04,2.58-1.26,1.12-5.25,1.18-6.69-.63-.88-1.29,1.02-1.92,2.64-1.95ZM161.75,44.71c1.84-.14,3.53,1.86,1.79,3.61-1.32,1.33-3.19.88-3.76-.9-.42-1.9,1.15-2.64,1.97-2.71h0ZM132.09.18l3.92-.17c-1.53.03-6.18.38-7.23.49h-.04s3.35-.32,3.35-.32ZM146.12,10.57c3.4-.17,5.12,2.13,3.84,3.28-1.07.96-4.76,1.13-6.2-.96-.72-1.24.27-2.21,2.35-2.32h0ZM162.15,51.57c2.2-.43,3.16,1.64,2.27,2.85-.88,1.18-3.28,1.67-3.89-.58-.36-1.74,1.15-2.18,1.62-2.27h0ZM147.71,15.01c3.2-.21,5,2.09,3.92,3.32-1.06,1.2-4.78,1.56-6.24-.89-1.09-2.18,2.19-2.42,2.33-2.43h0ZM162.51,58.3c1.89-.42,2.78,1.31,2.03,2.35-.84,1.17-3.02,1.8-3.56-.25,0-.02-.01-.05-.02-.07-.26-1.55,1.24-1.96,1.55-2.03h0ZM149.15,20.03c2.96-.38,5.05,2.17,3.75,3.7-1.15,1.35-4.59,1.37-5.83-.99-1-2.28,1.95-2.69,2.08-2.71ZM162.84,64.83c1.6-.27,2.21,1.15,1.55,2.03-.77,1.04-2.76,1.63-3.16-.16,0-.02,0-.04-.01-.06-.18-1.5,1.54-1.8,1.62-1.81ZM150.95,25.64c2.67-.16,4.44,3.06,3.03,4.45-.94.93-4.14,1.22-5.34-1.37-.98-2.85,2.27-3.08,2.3-3.09h0ZM162.62,71.31c1.23-.19,1.86,1.07,1.23,1.88-.54.69-2.3,1.15-2.58-.31v-.06c-.11-1.01.8-1.42,1.35-1.51h0ZM152.07,32.13c2.67-.46,4.43,2.01,3.22,3.62-1.12,1.5-4.16,1.66-5.19-.81-.78-2.31,1.86-2.79,1.97-2.81h0ZM153.42,38.65c2.74-.36,3.88,2.16,2.78,3.62-.92,1.23-3.97,1.45-4.89-.98-.66-2.25,1.99-2.62,2.1-2.64ZM154.32,45.2c2.44-.36,3.41,2.24,2.35,3.61-.82,1.05-3.55,1.69-4.38-.89-.45-1.72.8-2.54,2.02-2.72ZM138.55,11.01c2.73-.45,5.62,1.02,4.3,2.71-1.18,1.52-5.23,1.98-6.72-.15-.87-1.44,1.02-2.33,2.41-2.56ZM155.04,52.01c2.05-.3,3.19,1.83,2.19,3.18-.8,1.08-3.49,1.67-4.17-.75-.44-2.02,1.73-2.39,1.98-2.43ZM140.08,15.43c3.38-.51,5.21,1.74,4.03,3.12-1.13,1.32-4.99,1.99-6.47-.41-1.09-2.15,2.3-2.69,2.44-2.71ZM155.41,58.78c1.94-.33,2.92,1.32,1.99,2.56-.95,1.26-3.35,1.48-3.81-.42-.3-1.76,1.74-2.12,1.82-2.14h0ZM141.62,20.56c3.04-.47,5.1,1.87,3.81,3.46-1.09,1.35-4.78,1.94-6.15-.59-1.03-2.32,2.2-2.84,2.34-2.87ZM155.63,65.42c1.78-.18,2.26,1.58,1.41,2.53-.88.97-2.91,1.02-3.25-.56-.16-1.22.81-1.87,1.85-1.97h0ZM143.19,26.41c3-.53,4.92,2,3.54,3.69-1.26,1.54-4.56,1.78-5.72-.7-.93-2.37,1.86-2.94,2.18-3ZM155.12,72.03c1.63-.25,2.11.84,1.53,1.63-.67.93-2.53,1.21-2.86-.12-.01-.05-.02-.09-.02-.12-.06-.66.35-1.13,1.21-1.36.05-.01.1-.02.14-.03ZM144.61,32.55c2.61-.42,4.61,2.23,3.01,4-1.42,1.57-4.39,1.07-5.22-.89-.64-1.78.94-2.91,2.21-3.11ZM145.74,39.12c2.98-.44,3.93,2.46,2.9,3.81-1.04,1.38-4.09,1.42-4.94-.82-.52-1.77.69-2.79,2.04-2.99h0ZM129.34,8.44c3.36-.83,5.19.64,4.4,2-.92,1.58-5.42,2.24-6.81.63-.71-1,.31-2.1,2.41-2.62h0ZM120.64,2s.04,0,.06-.01c-.27.14-5.78,1.81-6.69,2.06-.04.01-.09.02-.13.03.02-.01.05-.02.07-.03,1.99-.64,4.65-1.52,6.69-2.04h0ZM146.78,45.84c2.32-.36,3.66,1.92,2.57,3.44-.92,1.29-3.84,1.69-4.63-.72-.49-1.82,1.06-2.57,2.06-2.72h0ZM130.82,12.07c3.24-.78,5.17,1.08,4.25,2.54-.93,1.49-5.14,2.25-6.53.35-.81-1.28.52-2.47,2.27-2.89h0ZM147.34,52.63c2.13-.35,3.34,1.53,2.37,2.86-1,1.39-3.69,1.62-4.3-.49-.43-1.96,1.84-2.36,1.94-2.37h0ZM117.33,3.08c1.99-.63,4.31-1.13,4.22-.78-.11.43-5.24,2.27-6.86,2.14-.09-.02-.11-.02-.15-.06.02-.4,2.51-1.2,2.79-1.3ZM132.36,16.47c3.14-.79,5.12,1.46,4.12,2.97-1.12,1.69-5.08,2.02-6.31.08-.9-1.75,1.04-2.76,2.19-3.05ZM147.81,59.37c1.93-.29,2.95,1.39,2.02,2.57-.96,1.22-3.38,1.39-3.85-.48-.31-1.74,1.74-2.07,1.83-2.09ZM133.93,21.66c3.14-.72,4.86,1.54,3.85,3.12-1.07,1.68-4.79,2.24-6.06-.09-1.03-2.26,2.08-3,2.21-3.03h0ZM148.13,65.83c1.81-.13,2.3,1.63,1.43,2.55-.88.94-2.93.92-3.28-.65-.17-1.21.81-1.82,1.85-1.9ZM135.57,27.19c2.77-.46,4.65,2.38,3.3,3.95-1.09,1.26-4.31,1.74-5.49-.67-.75-1.8.53-3.01,2.19-3.28h0ZM121.39,1.82l-.29.07h-.05c1.33-.2,2.64-.49,3.96-.72-2.96.59-3.04.77-3.15.99.42.09,1,.2,3.64-.26-.83.21-1.03.25-1.77.51-.4.14-.67.47-1.07.61-2.37.83-5.25.38-7.19,2.28.04.09.1.21.15.29,1.41.38,6.37-.99,7.15-2.19.88.23,1.7.23,3.64-.03-1.84.56-2.48.96-2.64,1.63-1.45-1.28-6.65.83-7.04,1.77-.19.47-.01.53.88.83,2.63-.02,6.03-1.14,6.31-2.5.52.52,1.61.65,3.76.45-4.39,1.41-1.49,2.59-1.46,2.6,1.57.59,6.18.18,6.63-1.91.82.73,1.52,1.06,4.38,1.03-5.06.9-2.08,2.83-2.04,2.85,2.17,1.27,6.51.56,6.44-1.07,0-.02-.26-2.07-4.3-1.79,2.39-.4,3.09-.79,3.13-1.74,0,0,0,0,0,0h0s0,0,0,0h0s0,0,0,0h0s0,0,0,0c2.41,2.14,7.29,1.45,7.3.33,0-.14-.1-1.35-3.74-1.72,1.59-.08,2.22-.19,2.61-.66,1.43.32,2.74.95,4.19,1.2-.95-.05-3.85-.21-2.74,1.12.95,1.13,5.27,2.15,6.84,1.05-.08-.84-.76-1.5-3.91-2.15,2.94.27,2.93-.25,2.4-.73-.35-.32-1.6-.99-3.83-1.28,1.86.22,2.37.24,2.87.11l.05-.2c-.9-.72-5.6-1.73-7.24-1.23-.64-.29-1.25-.39-3.14-.63,3.16.07,6.19,1.03,9.36,1.02-.07-.04-10.68-3.23-26.28-.62.27-.05.64-.12.91-.17q1.5-.27,2.12-.38c-2.07.34-4.83.78-6.86,1.25h0ZM147.71,72.43c1.49-.13,2.07.98,1.33,1.79-.79.86-2.6.93-2.84-.45-.1-1.17,1.34-1.32,1.51-1.34h0ZM136.95,33.59c2.84-.58,4.31,1.84,3.32,3.38-1.01,1.58-4.41,1.94-5.41-.39-.83-2.36,1.97-2.96,2.09-2.99h0ZM120.57,7.39c3.03-1.06,4.95-.14,4.35,1-.71,1.34-5.23,2.83-6.7,1.49-.9-1,1.05-2.04,2.35-2.5h0ZM138.06,40.01c2.58-.52,4,2.12,3.02,3.55-.91,1.32-4.07,1.8-5.01-.62-.55-1.76.73-2.68,1.99-2.94h0ZM121.99,10.29c2.84-.96,4.93.07,4.25,1.52-.79,1.69-5.09,2.85-6.43,1.32-.78-1.03.52-2.27,2.18-2.84h0ZM111.76,4.88l1.09-.43c.22-.08.3-.11.39-.13-.19.24-5.3,2.43-6,2.67-.04.01-.09.03-.13.03q.09-.08.38-.22l4.27-1.92ZM139.22,46.45c2.13-.31,3.45,2.31,2.36,3.66-.7.87-3.65,1.58-4.47-.84-.43-1.92,1.12-2.68,2.11-2.82h0ZM123.49,13.96c3.07-1.05,4.92.48,4.16,1.89-.88,1.65-4.98,2.85-6.38.98-1.05-1.73,2.08-2.83,2.22-2.87h0ZM139.65,53.32c2.23-.43,3.54,1.44,2.52,2.78-.9,1.2-3.62,1.62-4.27-.55-.39-1.74,1.39-2.17,1.75-2.24ZM110.38,5.74c1.72-.78,4.11-1.64,3.95-1.13-.16.52-4.86,2.76-6.4,2.73-.03,0-.07,0-.1-.02-.11-.36,2.27-1.46,2.54-1.58h0ZM124.99,18.2c2.97-.97,4.69,1.1,3.74,2.71-.87,1.49-4.46,2.64-5.86.48-.66-1.23.23-2.57,2.11-3.19h0ZM140.25,59.91c2.05-.28,2.84,1.56,1.97,2.6-.9,1.09-3.37,1.14-3.82-.6-.3-1.68,1.76-1.99,1.85-2ZM111.47,6.31c2.59-1.14,3.92-.97,3.65-.35-.44,1.03-4.95,2.87-6.11,2.49-.71-.38.74-1.38,2.46-2.14ZM126.6,23.05c2.69-.69,4.59,1.3,3.61,3.01-1.04,1.83-4.58,2.32-5.72.31-.83-1.83.8-2.99,2.11-3.32ZM140.4,66.29c1.76-.14,2.42,1.29,1.7,2.1-.84.94-2.99,1.32-3.41-.49-.2-1.45,1.63-1.61,1.71-1.61ZM127.85,28.86c2.93-.93,4.68,1.17,3.81,2.81-.88,1.66-4.36,2.74-5.65.14-.8-1.95,1.2-2.76,1.83-2.96ZM112.18,7.92c2.77-1.33,4.46-.97,4.21-.09-.34,1.19-4.87,3.2-6.17,2.4-.71-.6.52-1.61,1.96-2.31ZM140.2,72.4c1.24-.12,1.96,1.31,1.31,2.05-.6.68-2.49.78-2.72-.59-.1-1.3,1.39-1.46,1.41-1.46ZM129.22,35.01c2.92-.9,4.29,1.47,3.49,2.87-.93,1.62-4.13,2.55-5.28-.04-.7-1.95,1.37-2.7,1.79-2.83ZM113.62,10.01c2.24-1.08,4.53-.94,4.16.26-.45,1.47-4.7,3.67-6.24,2.38-.77-.82.86-2.06,2.07-2.64ZM130.63,41.16c2.4-.53,3.89,1.41,2.9,2.97-.9,1.42-3.92,2.14-4.85-.24-.66-2.09,1.68-2.67,1.95-2.73ZM114.94,12.82c2.42-1.13,4.48-.38,4.04.97-.54,1.67-4.8,3.35-6.06,1.98-.78-1.01.75-2.36,2.02-2.95h0ZM103.03,9.23l2.21-1.27c.78-.42,1.02-.53,1.15-.56-.08.25-4.66,2.9-5.35,3.19-.04.02-.08.03-.12.04,0-.04.03-.1,1.15-.82l.96-.59ZM131.84,47.42c2.14-.3,3.31,1.99,2.2,3.33-.71.85-3.42,1.79-4.28-.64-.46-1.59.76-2.51,2.08-2.69ZM116.33,16.34c2.2-.97,4.61,0,3.97,1.6-.68,1.7-4.55,3.22-5.92,1.45-1.01-1.69,1.91-3.04,1.95-3.05ZM132.14,54.07c2.41-.49,3.27,1.39,2.55,2.48-.84,1.27-3.57,1.82-4.27-.39-.35-1.55,1.23-1.99,1.72-2.09ZM103.99,9.04c1.79-1.09,3.39-1.69,3.39-1.4,0,.5-4.34,3.25-5.52,3.29-.47-.04.47-.77.9-1.08.36-.26.78-.54,1.23-.81h0ZM117.83,20.54c2.6-1.2,4.34.19,3.88,1.67-.54,1.76-4.46,3.36-5.76,1.4-.94-1.75,1.76-3.02,1.88-3.07h0ZM132.73,60.23c2.21-.36,2.77,1.63,1.96,2.61-.78.95-3.19,1.16-3.71-.7-.3-1.56,1.66-1.89,1.74-1.91ZM104.82,9.77c1.84-1.14,3.67-1.64,3.63-.99-.06.87-4.31,3.54-5.57,3.2-.59-.26.55-1.35,1.94-2.21h0ZM119.34,25.31c2.59-1.06,4.25.68,3.58,2.24-.77,1.79-4.31,2.98-5.51.89-.91-1.94,1.91-3.12,1.93-3.13h0ZM132.99,66.45c1.54-.1,2.4,1.14,1.46,2.11-.98,1.01-2.8.87-3.14-.59-.2-1.38,1.66-1.52,1.68-1.52h0ZM120.86,30.68c2.55-.89,4.11,1.01,3.34,2.48-.88,1.68-4.03,2.94-5.26.55-.85-2.04,1.81-2.99,1.92-3.03h0ZM105.86,11.26c1.25-.78,2.82-1.39,3.49-1.01,0,0,0,0,0,0,1.17.92-3.32,3.58-4.82,3.6-.36,0-.54-.1-.59-.13-.89-.7,1.89-2.44,1.92-2.46h0ZM132.6,72.43c1.62-.11,2.03,1.11,1.47,1.72-.6.65-2.53.71-2.8-.63-.09-.95,1.09-1.08,1.33-1.1h0ZM122.33,36.29c1.87-.58,3.91.96,2.94,2.77-.95,1.77-3.87,2.58-4.88.34-.57-1.54.82-2.77,1.94-3.11ZM107.12,13.23c2.19-1.33,3.82-1.03,3.58.13-.32,1.49-4.21,3.7-5.44,2.69-.58-.62.22-1.83,1.86-2.83ZM123.38,42.55c2.35-.61,3.61,1.32,2.79,2.61-.8,1.26-3.74,2.36-4.7.01-.62-1.94,1.81-2.6,1.91-2.62h0ZM108.39,16.09c2.34-1.46,3.97-.84,3.75.33-.32,1.69-4.27,3.85-5.51,2.55-.9-1.2,1.74-2.86,1.76-2.88h0ZM97.23,13.21c1.04-.81,2.65-1.98,2.96-2.06.02.23-3.95,3.23-4.65,3.6-.03.02-.07.03-.1.04.02-.19,1.61-1.43,1.79-1.57h0ZM124.25,48.57c2.11-.52,3.45,1.45,2.48,2.85-.74,1.07-3.46,1.81-4.25-.43-.51-1.81,1.53-2.37,1.77-2.42h0ZM109.86,19.42c2.28-1.32,3.95-.46,3.47,1.12-.55,1.83-4.15,3.46-5.34,1.98-.77-1.21,1.09-2.65,1.87-3.1ZM124.84,54.74c2.03-.42,3.24,1.19,2.33,2.4-.8,1.05-3.33,1.47-3.93-.42-.35-1.49,1.27-1.91,1.6-1.98ZM97.91,13.21c1.81-1.44,3.13-2.05,3.06-1.6-.09.59-3.66,3.41-4.65,3.51-.55-.03.65-1.16,1.6-1.9h0ZM111.26,23.29c2.21-1.15,3.75.06,3.43,1.45-.43,1.87-4.05,3.45-5.23,1.79,0-.02-.02-.03-.03-.04-.77-1.43,1.06-2.79,1.83-3.19h0ZM125.35,60.7c1.78-.24,2.7,1.2,1.85,2.21-.86,1.02-3.05,1.13-3.49-.46-.29-1.47,1.56-1.74,1.64-1.75h0ZM98.94,13.79c1.4-1.11,3.09-1.91,3.07-1.27-.03.93-3.59,3.88-4.74,3.6-.59-.23.65-1.53,1.67-2.34h0ZM112.41,27.93c1.75-.85,4.18-.32,3.6,1.71-.53,1.86-4.02,2.93-4.97,1.53-.02-.03-.04-.06-.05-.09-.9-1.85.87-2.89,1.42-3.16h0ZM125.66,66.46c1.49-.11,2.12,1.18,1.32,2-.86.88-2.61.74-2.92-.55-.17-1.08,1.1-1.41,1.61-1.45ZM100,15.11c1.48-1.16,3.26-1.78,3.14-.82-.16,1.32-3.61,4.06-4.77,3.45-.62-.44.61-1.83,1.63-2.63h0ZM114.13,32.82c2.19-.91,3.53.75,2.92,2.19-.73,1.73-3.81,2.9-4.83.91-.67-1.6,1.2-2.8,1.91-3.1ZM125.36,72.09c1.56,0,1.83,1.26,1.2,1.77-.55.45-2.2.56-2.45-.73-.07-.57.29-.91,1.07-1.02h.18ZM115.24,38.32c2.14-.83,3.59,1.11,2.98,2.53-.66,1.53-3.67,2.36-4.6.45-.01-.02-.02-.04-.03-.06-.56-1.48.54-2.5,1.65-2.93ZM101.26,17.08c1.77-1.36,3.15-1.24,3.11-.45-.06,1.3-3.53,4.39-4.85,3.37-.94-.82,1.71-2.9,1.74-2.92h0ZM92.98,16.84c-.86.81-1.69,1.65-2.5,2.51l2.5-2.51ZM116.46,44.04c2.08-.66,3.23,1.17,2.57,2.51-.7,1.42-3.43,2.07-4.26.21,0-.02-.02-.05-.03-.07-.5-1.5.84-2.37,1.72-2.64h0ZM102.38,19.86c1.86-1.4,3.33-1.24,3.31-.17-.03,1.53-3.64,4.2-4.85,3.12-.01-.01-.03-.03-.04-.04-.83-1.08,1.56-2.89,1.59-2.9h0ZM92.07,17.75c.99-1,2.23-2.11,2.49-2.17.03.27-3.34,3.54-3.9,3.89-.03.01-.06.03-.09.03,0-.23,1.35-1.59,1.5-1.75h0ZM117.2,49.79c1.92-.51,3.24,1.26,2.37,2.51-.7,1.01-3.28,1.77-4.03-.27-.48-1.66,1.58-2.22,1.67-2.24h0ZM103.77,22.85c1.71-1.13,3.33-.51,3.11.74-.3,1.64-3.67,3.7-4.71,2.43-.86-1.48,1.58-3.15,1.61-3.17h0ZM92.88,17.66c1.38-1.4,2.56-2.11,2.55-1.72-.01.54-3.12,3.72-4,3.87-.46,0,.57-1.26,1.45-2.15h0ZM117.97,55.56c2.03-.39,2.66,1.39,1.98,2.32-.7.97-3.07,1.33-3.65-.41-.36-1.5,1.65-1.9,1.67-1.91ZM104.82,26.93c1.88-1.3,3.57-1.01,3.34.57-.2,1.41-3.34,3.96-4.68,2.37-.04-.04-.06-.08-.08-.11-.71-1.27,1.06-2.59,1.42-2.84ZM118.2,61.23c1.58-.21,2.68.96,1.8,1.92-.75.83-2.74,1.14-3.2-.46-.23-1.15,1.01-1.41,1.4-1.46ZM93.49,18.59c1.28-1.31,2.79-2.21,2.88-1.73.16.82-3.2,4.11-4.04,3.96-.72-.29,1.14-2.2,1.16-2.22h0ZM106.19,30.99c1.96-1.28,3.31-.35,3.12.92-.25,1.64-3.16,3.69-4.44,2.19-.07-.08-.11-.15-.14-.19-.72-1.47,1.37-2.85,1.46-2.91h0ZM118.33,66.45c1.15-.04,2.13,1.24,1.48,1.93-.47.51-2.45.86-2.81-.63-.19-1.15,1.31-1.3,1.33-1.3h0ZM94.52,19.88c1.3-1.3,2.85-2.04,2.97-1.41.17.9-3.02,4.36-4.1,3.9-.76-.55,1.12-2.46,1.14-2.48h0ZM107.45,35.62c1.59-.84,3.48-.23,3.07,1.43-.51,2.04-3.43,2.86-4.34,1.61-.07-.09-.11-.17-.13-.21-.61-1.39.84-2.54,1.4-2.84h0ZM118.37,71.73c1.1.07,1.55,1.07.93,1.54-.56.42-1.98.36-2.19-.69-.11-.92,1.25-.85,1.26-.85h0ZM95.74,21.64c1.36-1.35,2.8-1.74,2.86-.78.08,1.43-3.13,4.25-4.09,3.58-.49-.46.24-1.82,1.23-2.81ZM108.78,40.76c2.07-.96,3.13.61,2.65,1.77-.55,1.35-3.2,2.74-4.15,1-.02-.03-.04-.07-.05-.1-.62-1.64,1.53-2.65,1.55-2.66h0ZM88.77,21.27l.17-.2c-.92,1.07-2.67,3.38-2.96,3.76-.02.03-.04.06-.06.08.85-1.09,1.94-2.58,2.84-3.64ZM109.82,45.91c1.89-.71,2.93.87,2.32,2.12-.58,1.2-3.1,2.14-3.87.37,0-.01-.01-.03-.02-.04-.44-1.29.78-2.14,1.57-2.44h0ZM96.84,24.16c1.39-1.35,2.83-1.57,2.84-.44.02,1.63-3.09,4.2-4.06,3.35-.01,0-.02-.02-.03-.03-.56-.68.46-2.13,1.24-2.89h0ZM87.64,22.77c.74-.96,1.69-2.06,1.95-2.16h.03c-.02.32-2.48,3.57-3.11,4.01-.02.01-.05.03-.07.03-.08-.1.56-1.05,1.21-1.89h0ZM110.52,51.4c2.02-.68,2.86.76,2.31,1.73-.64,1.14-3.05,1.94-3.72.19-.36-1.26,1.11-1.83,1.4-1.93h0ZM98.13,27.14c1.64-1.51,2.84-1.13,2.83-.14-.02,1.48-2.94,4.11-4.04,3.16-.04-.03-.06-.06-.08-.09-.7-1.07,1.28-2.91,1.3-2.93h0ZM88.34,22.81c1.13-1.49,2.1-2.25,2.13-1.95.05.48-2.5,3.95-3.23,4.13-.37.02.4-1.25,1.1-2.18h0ZM111.3,56.46c1.47-.31,2.17,1.12,1.62,2.01-.49.81-1.66.8-2,.78-.83-.05-1.13-.75-1.2-.96-.31-1.4,1.39-1.79,1.58-1.83h0ZM99.37,30.54c1.57-1.26,2.77-.92,2.76.22-.02,1.61-2.97,3.75-3.96,2.86-.08-.07-.12-.13-.14-.17-.7-1.24,1.32-2.89,1.34-2.91h0ZM111.62,61.63c1.26-.15,2.08.8,1.41,1.63-.71.88-2.47,1.06-2.86-.25-.2-.97.98-1.32,1.45-1.38ZM89.13,23.54c1.17-1.54,2.16-2.19,2.26-1.74.14.62-2.47,4.19-3.32,4.12-.49-.17.6-1.78,1.05-2.38ZM100.51,34.52c1.76-1.27,2.83-.49,2.67.63-.22,1.56-2.89,3.44-3.89,2.32-.07-.08-.1-.13-.13-.17-.65-1.31,1.26-2.72,1.34-2.78h0ZM111.56,66.6c1.29-.07,1.95.77,1.41,1.38-.6.67-2.28.68-2.56-.41-.14-.83.84-.95,1.15-.96ZM90.04,24.86c1.17-1.54,2.2-2.05,2.32-1.46.16.81-2.48,4.39-3.35,4.05-.49-.35.61-2.03,1.03-2.59ZM101.69,38.77c1.65-1.14,2.77-.23,2.57.93-.25,1.44-2.8,3.22-3.82,1.88-.03-.04-.07-.1-.08-.13-.58-1.34,1.31-2.66,1.33-2.68h0ZM111.53,71.23c.93.02,1.34.76.85,1.17-.57.47-1.8.28-1.96-.47-.06-.59.8-.7,1.11-.69h0ZM91.1,26.62c1.2-1.48,2.22-1.83,2.34-1.15.12.73-2.41,4.54-3.42,3.88-.51-.51.61-2.15,1.08-2.74h0ZM102.91,43.17c1.56-.75,2.49.49,2.15,1.65-.35,1.18-2.55,2.57-3.51,1.17-.05-.07-.07-.12-.1-.17-.43-1.07.4-2.14,1.46-2.65h0ZM83.42,28.75l1.29-2.07c.12-.19.16-.23.19-.28-.04.14-2.29,3.84-2.31,3.88-.02.03-.04.06-.06.08,0-.03.01-.08.41-.79l.47-.82ZM92.09,28.99c1.19-1.47,2.29-1.73,2.41-.96.18,1.16-2.33,4.4-3.34,3.74-.03-.02-.05-.04-.06-.05-.59-.75.98-2.71,1-2.73h0ZM103.68,48.11c1.56-.69,2.5.53,2.11,1.58-.41,1.1-2.59,2.22-3.42.78-.03-.05-.05-.1-.08-.15-.47-1.37,1.31-2.17,1.38-2.21h0ZM83.86,28.36c.67-1.17,1.51-2.35,1.69-2.39.1.33-2.02,3.8-2.42,4.14-.02.01-.04.02-.06.03-.1-.08.33-.97.8-1.78h0ZM104.46,52.97c1.7-.59,2.3.71,1.88,1.6-.5,1.05-2.63,1.63-3.23.33-.01-.03-.03-.06-.03-.08-.36-1.23,1.37-1.84,1.39-1.85ZM93.25,31.73c1.11-1.21,2.18-1.48,2.34-.57.2,1.18-2.26,4.14-3.31,3.48-.07-.04-.11-.09-.13-.11-.6-.91,1.09-2.78,1.11-2.8h0ZM84.61,28.31c.75-1.31,1.57-2.2,1.63-1.92.09.44-1.81,3.94-2.44,4.17-.32.03.26-1.29.82-2.25ZM104.82,57.71c1.49-.39,2.29.58,1.8,1.31-.59.89-2.52,1.46-3.01.08-.24-.96.96-1.33,1.21-1.39h0ZM94.19,35c1.23-1.32,2.41-1.5,2.47-.37.06,1.28-2.33,3.86-3.29,3.12,0,0-.08-.06-.12-.12-.38-.68-.07-1.56.94-2.64ZM105.13,62.21c1.18-.17,1.95.77,1.45,1.42-.43.56-2.27.92-2.65-.3-.2-.91,1.14-1.11,1.2-1.12ZM85.36,29.08c.88-1.52,1.67-2.22,1.78-1.81.11.44-1.78,4.19-2.57,4.22-.38-.13.37-1.68.79-2.41h0ZM95.45,38.25c1.27-1.11,2.21-.72,2.17.36-.05,1.47-2.23,3.32-3.11,2.64,0,0-.15-.13-.21-.23-.4-.85.45-2.16,1.15-2.77ZM105.38,66.52c1.1,0,1.33.82.83,1.26-.53.46-1.81.42-2.03-.38-.1-.64.68-.88,1.19-.88ZM86.21,30.28c.8-1.35,1.62-2.09,1.82-1.64.25.56-1.81,4.43-2.62,4.21-.42-.29.46-2,.8-2.58h0ZM96.48,42.1c1.21-.94,2.03-.48,2,.52-.04,1.48-2.19,3.09-3.08,2.29-.07-.06-.12-.13-.17-.21-.4-.92.67-2.15,1.25-2.6h0ZM80.73,33.96c-.54,1.2-.93,2.22-.97,2.34l.97-2.34ZM105.2,70.67c.93.03.85.61.5.91-.61.53-1.34.01-1.46-.47,0-.12-.03-.47.96-.44ZM87.1,32.08c.8-1.3,1.63-1.94,1.84-1.43.36.86-1.83,4.33-2.57,4.08-.02,0-.04-.02-.06-.03-.43-.41.42-2.03.79-2.62ZM97.27,46.28c1.29-.87,2.26-.09,2.12.87-.17,1.11-2.21,2.6-3.08,1.63-.1-.11-.15-.21-.18-.26-.46-1.15,1.07-2.19,1.14-2.24h0ZM80.62,34.24c.37-.87.9-1.97,1-2.09.03.13-1.32,3.35-1.59,3.79-.01.02-.03.03-.04.05-.06-.16.59-1.68.62-1.75h0ZM98.02,50.68c1.23-.69,2.24-.27,2.02.84-.19.96-2.19,2.16-2.94,1.18-.06-.07-.1-.15-.14-.24-.26-.67.37-1.4,1.06-1.79h0ZM88.1,34.19c.73-1.11,1.62-1.84,1.83-1.14.32,1.04-1.82,4.21-2.6,3.85-.03-.01-.05-.03-.07-.05-.41-.52.47-2.1.84-2.66ZM81.04,34.09c.42-1.04.99-2.15,1.16-2.16.13.2-1.29,3.65-1.66,4.01-.01,0-.04.02-.05.02-.09-.16.29-1.2.56-1.87h0ZM98.69,54.82c1.26-.54,1.96.25,1.63,1-.41.94-2.24,1.7-2.73.66-.01-.03-.02-.05-.03-.07-.29-.98,1.07-1.57,1.13-1.6ZM89.06,36.64c.83-1.17,1.65-1.57,1.86-.91.32,1.03-1.81,4.03-2.6,3.66-.06-.03-.1-.07-.12-.09-.41-.62.48-2.13.86-2.66h0ZM81.68,34.25c.52-1.28,1.09-2.2,1.24-2.01.22.28-1.33,3.97-1.75,4.16-.01,0-.03,0-.04,0-.18-.14.24-1.39.54-2.15h0ZM99.23,58.85c1.06-.26,1.72.7,1.21,1.38-.46.62-2.05.95-2.42-.09-.2-.94,1.19-1.29,1.21-1.29h0ZM89.99,39.56c.84-1.06,1.64-1.35,1.82-.66.3,1.1-1.78,3.78-2.58,3.33-.08-.04-.12-.09-.14-.12-.38-.67.52-2.07.9-2.55h0ZM99.34,62.89c.91-.12,1.53.59,1.18,1.09-.37.51-1.86.72-2.15-.18-.14-.59.55-.84.98-.9h0ZM82.35,35.05c.56-1.34,1.15-2.19,1.31-1.85.14.31-1.25,4.15-1.82,4.19-.27-.09.14-1.42.51-2.34ZM90.75,42.81c.87-1.05,1.75-1.31,1.92-.59.22.97-1.64,3.5-2.52,2.99-.07-.05-.13-.11-.18-.18-.39-.78.66-2.08.79-2.23ZM99.38,66.6c.77-.04,1.15.48.81.83-.44.45-1.55.4-1.73-.22-.07-.46.66-.6.92-.61ZM83.14,36.21c.49-1.14,1.15-2.12,1.35-1.69.29.6-1.38,4.29-1.88,4.16-.31-.21.22-1.76.53-2.47h0ZM91.73,45.96c1.16-1.13,1.73-.5,1.78.08.1,1.2-1.78,2.92-2.55,2.34-.01-.01-.07-.06-.12-.16-.33-.78.44-1.82.89-2.26h0ZM78.42,40.24l.41-1.32c.04-.12.04-.13.05-.15,0,.01-.85,3.11-.95,3.43,0,.03-.02.05-.03.07,0-.02,0-.05,0-.07.15-.66.33-1.31.52-1.96ZM99,70.13c.47.03,1.12.3.73.59-.31.24-1.1.06-1.2-.36-.02-.22.24-.25.47-.23h0ZM83.97,37.77c.51-1.12,1.17-2,1.39-1.51.31.68-1.39,4.29-1.92,4.06,0,0-.01,0-.02,0-.3-.3.17-1.72.54-2.54h0ZM92.56,49.51c1.01-.8,1.55-.24,1.5.51-.08,1.14-1.69,2.38-2.33,1.8-.03-.03-.11-.12-.16-.22-.32-.78.47-1.68.99-2.09h0ZM78.61,40.06c.25-.93.56-1.84.67-1.93.07.18-.81,3.38-.96,3.66,0,0-.01.02-.02.03,0,0-.02,0-.02,0-.03-.2.16-1.05.34-1.75h0ZM93.07,53.34c.99-.67,1.71-.38,1.6.32-.12.86-1.71,2.15-2.35,1.41-.07-.08-.1-.15-.12-.18-.26-.76.75-1.47.87-1.55h0ZM84.68,39.97c.49-1.07,1.19-1.97,1.45-1.56.39.61-1.22,4.04-1.85,3.94-.04,0-.07-.03-.08-.04-.3-.37.18-1.69.48-2.34h0ZM79.05,39.98c.21-.79.56-1.79.7-1.89.21.2-.73,3.62-.96,3.88-.01,0-.02.01-.03.02-.1-.15.07-1.15.29-2h0ZM93.7,56.87c1.09-.52,1.5.14,1.34.59-.25.69-1.78,1.65-2.27.82-.02-.03-.03-.06-.04-.09-.22-.74.96-1.32.97-1.32h0ZM85.55,42.12c.52-1.03,1.21-1.76,1.45-1.19.08.18.17.77-.62,2.22-.7,1.29-1.02,1.48-1.34,1.38-.02,0-.04-.02-.05-.03-.22-.28.04-1.35.56-2.39ZM79.58,40.44c.29-1.11.59-1.84.78-1.87.33.22-.78,3.81-1.01,3.96,0,0-.02,0-.03,0-.16-.18.08-1.38.26-2.09h0ZM93.86,60.36c.89-.33,1.45.2,1.25.69-.24.6-1.72,1.08-2.08.35,0-.02-.02-.04-.02-.06-.16-.59.75-.94.85-.98h0ZM86.42,44.43c.8-1.31,1.27-1.15,1.38-.74.24.91-1.33,3.53-1.94,3.22-.05-.02-.07-.06-.09-.08-.29-.52.23-1.73.65-2.41h0ZM94.12,63.57c.76-.12,1.08.39.82.74-.33.45-1.47.59-1.68-.04-.1-.45.58-.66.85-.7ZM80.23,41.25c.35-1.35.75-2.09.87-1.87.13.25-.68,3.98-1.1,4.07-.21-.07.01-1.36.24-2.2ZM87.07,47.42c.55-.85,1.25-1.42,1.43-.84.26.85-1.33,3.29-1.93,2.97-.05-.02-.08-.06-.11-.1-.3-.6.57-1.97.61-2.03ZM94.06,66.64c.63-.02.84.39.57.63-.31.26-1.12.23-1.26-.23-.07-.36.56-.39.68-.4h0ZM80.9,42.47c.31-1.15.71-1.95.88-1.78.31.29-.73,4.08-1.11,4.09,0,0-.01,0-.02,0-.22-.15.02-1.44.25-2.31ZM87.86,50.16c.64-.8,1.21-.96,1.31-.38.15.86-1.39,2.79-1.94,2.44-.06-.04-.09-.09-.11-.11-.24-.55.45-1.59.73-1.94h0ZM77.39,44.82s.01-.05.02-.07c.04.16-.29,2.8-.37,3.1.07-1.02.19-2.03.34-3.03ZM93.73,69.44c.27.03.4.14.38.32-.26.15-.71-.02-.76-.19,0-.02-.01-.09.13-.14,0,0,.13,0,.25,0h0ZM81.65,43.76c.31-1.06.68-1.68.86-1.45.31.4-.75,4.03-1.15,3.96,0,0-.02,0-.02,0-.21-.21.05-1.62.31-2.5h0ZM88.36,53.2c.64-.68,1.26-.82,1.33-.3.1.74-1.29,2.45-1.88,2.03-.05-.04-.09-.09-.12-.14-.23-.6.58-1.48.67-1.58h0ZM77.45,46.1c.1-.82.26-1.59.35-1.65.14.24-.31,3.21-.38,3.37v.02s-.03,0-.03,0c-.08-.13-.01-1.11.06-1.75ZM82.37,45.51c.34-1.01.71-1.55.89-1.28.3.46-.82,3.91-1.22,3.77,0,0-.02-.01-.03-.01-.21-.27.08-1.63.36-2.48h0ZM88.99,56.08c.83-.64,1.15-.16,1.1.28-.11.82-1.46,1.79-1.86,1.33-.03-.03-.04-.06-.06-.09-.15-.46.29-1.12.82-1.53ZM77.89,46.32c.06-.56.21-1.65.38-1.81.08.04.1.28-.03,1.5-.05.47-.2,1.89-.35,2.11,0,0-.01,0-.02.01-.13-.16-.03-1.39.01-1.81h0ZM89.35,59.04c.66-.37,1.06.06.91.51-.2.6-1.4,1.2-1.7.7-.01-.03-.02-.05-.03-.06-.14-.61.8-1.15.81-1.16ZM82.95,47.87c.37-1.07.81-1.73.98-1.47.31.46-.82,3.69-1.26,3.6-.02,0-.04-.02-.05-.03-.21-.33.17-1.62.33-2.09h0ZM78.41,46.72c.1-.92.26-1.58.39-1.6.14.09.05,1.1.02,1.4-.15,1.44-.28,2.18-.4,2.25,0,0-.02,0-.03,0-.12-.19-.08-1.17.02-2.04ZM89.56,61.8c.64-.24.86.08.73.41-.2.48-1.25.9-1.48.47,0-.01-.01-.02-.02-.04-.08-.35.41-.71.78-.85ZM83.66,49.73c.41-.96.73-1.13.85-.88.29.59-.76,3.3-1.22,3.15-.03,0-.05-.02-.06-.04-.19-.32.08-1.39.43-2.22ZM89.48,64.43c.52-.13.75.11.62.33-.21.36-1.08.54-1.23.16,0,0,0,0,0-.01-.05-.24.39-.43.61-.48ZM78.99,47.58c.03-.24.18-1.47.41-1.63.01,0,.02,0,.03,0,.25.38-.3,3.81-.45,3.85-.14-.06-.11-1.25,0-2.22ZM84.29,51.93c.39-.75.75-.89.87-.59.24.59-.93,2.94-1.35,2.73-.02,0-.03-.02-.05-.05-.21-.41.32-1.7.53-2.1h0ZM89.38,66.72c.39-.02.41.16.28.29-.26.25-.69.1-.75-.08-.01-.15.25-.19.47-.2h0ZM79.57,48.74c.14-1.08.34-1.56.44-1.46.23.21-.2,3.67-.47,3.7-.14-.09-.13-1.12.02-2.25h0ZM84.68,54.58c.37-.65.83-1.12.97-.78.21.52-.96,2.59-1.36,2.41-.04-.02-.06-.05-.07-.06-.18-.42.45-1.56.46-1.57h0ZM76.97,51c.03.28.09,1.62.1,2.11-.05-.7-.08-1.41-.1-2.11ZM80.16,50.28c.18-1.23.41-1.81.53-1.64.21.29-.32,3.74-.57,3.73,0,0,0,0,0,0-.13-.15-.09-1.2.04-2.08h0ZM85.17,56.86c.43-.59.74-.65.81-.4.13.46-.85,2.14-1.29,1.95-.03-.02-.06-.04-.07-.07-.13-.35.32-1.15.56-1.47h0ZM77.23,52.21c-.04-.85,0-1.39.07-1.48.19.12.15,3.02.14,3.04,0,0,0,0-.01.01-.11-.13-.18-1.18-.2-1.58ZM85.43,59.31c.49-.55.84-.49.86-.2.03.34-.37.78-.49.91-.29.3-.62.59-.82.44-.02-.02-.04-.04-.06-.07-.12-.36.5-1.07.51-1.07h0ZM80.73,51.89c.17-1.01.41-1.66.53-1.46.19.32-.39,3.62-.62,3.53,0,0,0,0,0,0-.13-.18-.03-1.32.1-2.07ZM77.7,52.9c-.04-.74-.03-1.6.05-1.76,0,0,.02,0,.03.01.09.25.24,3.05.13,3.25,0,0-.02,0-.02,0-.09-.2-.16-1-.18-1.49ZM85.65,61.49c.44-.36.7-.25.7-.03.01.38-.89,1.16-1.19.89-.02-.02-.03-.04-.04-.06-.06-.3.43-.72.53-.8ZM81.26,53.58c.16-.79.39-1.51.53-1.35.26.28-.37,3.43-.66,3.34,0,0-.01,0-.02,0-.12-.19,0-1.28.15-1.98ZM78.17,53.43c-.04-.82,0-1.49.1-1.6.21.12.14,3.34.12,3.36-.15-.18-.22-1.74-.22-1.76h0ZM85.72,63.52c.41-.23.54-.14.5.04-.11.43-.81.8-1,.54,0-.01-.01-.02-.01-.03-.04-.14.15-.34.51-.54ZM81.75,55.36c.2-.8.42-1.3.54-1.19.21.19-.47,3.06-.72,3.04-.01,0-.02-.01-.03-.02-.11-.22.06-1.22.2-1.83h0ZM85.61,65.34c.31-.09.37.03.31.13-.05.09-.17.16-.31.19-.04,0-.32.04-.36-.05-.02-.17.22-.24.36-.27h0ZM78.68,54.46c-.03-.8,0-1.7.1-1.78.22.14.12,3.51.1,3.53-.13-.18-.19-1.73-.19-1.74ZM82.14,57.27c.24-.8.47-1.14.55-1.01.17.27-.53,2.68-.78,2.66-.02,0-.02-.02-.03-.02-.1-.21.1-1.1.25-1.63ZM79.17,55.33c0-.21,0-1.28.12-1.36.14.12.21,3.36.07,3.5-.08-.1-.18-1.22-.19-2.14ZM82.48,59.07c.23-.61.45-.84.53-.71.15.24-.62,2.24-.82,2.14,0,0-.01-.01-.02-.02-.08-.19.13-.94.31-1.41h0ZM79.66,56.94c0-.7.04-1.53.13-1.66,0,0,.01,0,.02,0,.11.15.08,3.39-.02,3.43-.07-.1-.13-1.01-.13-1.77h0ZM82.73,60.85c.27-.55.47-.65.52-.55.13.24-.65,1.83-.85,1.73,0,0-.02-.01-.02-.02-.07-.2.23-.92.35-1.16h0ZM77.99,58.4c-.12-.57-.18-1.07-.16-1.18.14.07.54,2.55.53,2.57-.07-.02-.28-.92-.38-1.39h0ZM80.09,58.19c.01-.67.07-1.4.17-1.43.13.17,0,3.14-.07,3.25,0,0,0,0,0,0-.07-.11-.1-1.09-.09-1.82ZM82.8,62.61c.28-.45.46-.52.5-.42.09.2-.64,1.33-.81,1.26,0,0-.02-.01-.02-.02-.05-.15.23-.65.33-.81ZM78.42,58.98c-.12-.6-.17-1.09-.14-1.19.12.07.56,2.76.55,2.78-.12-.2-.36-1.37-.4-1.6h0ZM82.88,64.02c.21-.24.34-.33.36-.23.04.25-.54.94-.7.85,0,0-.01-.01-.01-.02-.02-.09.12-.32.36-.6h0ZM80.48,59.62c0-.11.06-1.11.17-1.18.13.15-.06,2.86-.13,2.97,0,0,0,0,0,0-.06-.12-.07-1.09-.03-1.78ZM78.93,60.11c-.13-.69-.21-1.28-.19-1.43,0,0,.02,0,.02,0,.08.19.57,2.86.54,2.95-.07-.09-.26-.95-.37-1.52h0ZM82.69,65.37c.2-.15.38-.22.38-.16,0,.13-.49.47-.58.4,0,0,0,0,0,0,0-.06.16-.19.21-.23ZM80.78,61.11c.04-.5.12-1.03.2-1.08.15.17-.2,2.64-.22,2.65-.05-.15-.02-1.03.02-1.57ZM79.36,61.09c-.12-.69-.2-1.29-.18-1.44.1.06.54,3.05.54,3.07-.06-.11-.24-.99-.36-1.63h0ZM81,62.6c.06-.56.15-.97.22-1.04,0,0,.01,0,.02,0,.08.18-.25,2.23-.3,2.31,0,0,0,0,0,0-.03-.14.03-.9.07-1.28ZM79.77,62.23c-.11-.69-.18-1.29-.16-1.43.08.09.5,3.06.49,3.08-.05-.12-.22-.98-.33-1.65h0ZM81.16,63.83c.03-.15.12-.63.19-.71,0,0,.01,0,.02,0,.05.14-.29,1.8-.34,1.87,0,0,0,0,0,0-.02-.08.06-.74.14-1.16h0ZM80.15,63.55c-.1-.69-.17-1.27-.15-1.39.06.09.44,2.96.44,2.97-.03-.12-.18-.87-.29-1.59h0ZM81.18,65.07c.08-.34.17-.59.21-.6.04.1-.35,1.4-.36,1.4,0-.05.09-.56.15-.8ZM79.77,64.51c-.14-.36-.28-.77-.3-.88.04.03.75,1.99.76,2.01-.03-.07-.27-.62-.46-1.13ZM81.12,66.02c.09-.25.16-.42.19-.43.03.06-.36.97-.36.98h0s.1-.34.17-.55h0ZM80.45,64.79c-.1-.74-.14-1.24-.13-1.36.04.08.36,2.81.36,2.83-.02-.08-.14-.77-.23-1.47ZM80.27,65.6c-.21-.56-.33-.94-.35-1.05.03.03.78,2.17.79,2.19-.03-.08-.24-.61-.44-1.14h0Z"></path><path d="M.39,23.64s.02-.06.06-.06h3.98s.06.02.06.06v.09c0,.06,0,.13-.03.21-.02.09-.04.2-.07.34l-.24,1.23c-.1.49-.15.99-.15,1.49v8.56c0,.5.05,1,.15,1.5.1.5.18.91.24,1.22.03.14.05.26.07.34.02.09.03.16.03.21v.09s-.02.06-.06.06H.45s-.06-.02-.06-.06v-.09c0-.06,0-.13.03-.21.02-.09.04-.2.07-.34.08-.31.16-.72.26-1.22.1-.49.15-.99.15-1.5v-8.56c0-.5-.05-1-.15-1.49-.08-.41-.17-.82-.26-1.23-.02-.11-.04-.23-.07-.34-.02-.07-.03-.14-.03-.21v-.09ZM5.98,28.24s.02-.06.06-.06h3.28s.06.02.06.06v1.6c.76-1.2,1.79-1.8,3.07-1.8.44,0,.87.08,1.27.24.39.15.74.39,1.02.71.28.31.51.7.67,1.14.16.45.24.96.24,1.53v3.91c0,.5.05,1,.15,1.49.1.49.18.89.26,1.21.03.14.05.26.07.34.02.09.03.16.03.21v.09s-.02.06-.06.06h-3.81s-.06-.02-.06-.06v-.11c.34-1.48.5-2.56.5-3.23v-3.49c0-.67-.16-1.17-.47-1.49s-.71-.49-1.2-.5c-.53,0-1.09.23-1.69.68v4.79c0,.57.06,1.13.17,1.67.11.54.2.96.28,1.26l.08.3v.11s-.02.06-.06.06h-3.81s-.06-.02-.06-.06v-.09c0-.06,0-.13.03-.21.02-.09.04-.2.07-.34.08-.31.17-.72.26-1.21.1-.49.15-.99.15-1.49v-4c0-.5-.05-1-.15-1.49-.08-.4-.17-.81-.26-1.21-.02-.11-.04-.23-.07-.34-.02-.07-.03-.14-.03-.21v-.09ZM17.29,31.36c0-1.04.37-1.85,1.11-2.44.74-.58,1.73-.88,2.97-.88s2.37.26,3.5.79c.03,0,.04.02.04.06v2.82s-.02.06-.06.06h-.08l-.04-.02c-.67-.84-1.3-1.5-1.88-1.99-.58-.48-1.16-.73-1.76-.73-.38,0-.69.09-.95.28-.26.19-.39.46-.39.83,0,.41.18.74.55.99.37.25.97.52,1.82.82.01,0,.02,0,.03.01s.02.01.03.01c.04,0,.06,0,.08.02,1.11.44,1.91.95,2.38,1.52.47.57.71,1.26.71,2.08,0,1.17-.39,2.05-1.17,2.65-.75.61-1.68.92-2.78.92-1.17,0-2.44-.31-3.83-.92-.03,0-.04-.02-.04-.06v-2.95s.02-.06.06-.06h.08s.04,0,.04.02c.03.03.07.08.14.16.06.08.16.19.27.33l.49.49s.08.11.16.19l.27.3c.09.1.17.18.23.24l.19.17.1.09c.08.07.16.14.24.19.08.06.16.12.22.19.27.2.52.34.76.41.23.07.5.12.8.15.39,0,.72-.1.99-.31.27-.21.41-.52.41-.93,0-.23-.05-.42-.15-.59-.1-.16-.28-.32-.53-.48-.22-.16-.45-.29-.68-.39-.3-.13-.59-.25-.89-.36l-.21-.09c-1.09-.44-1.9-.95-2.43-1.52-.53-.57-.8-1.27-.8-2.1h0ZM26.11,29.25s-.06-.02-.06-.06v-.86s.01-.06.04-.06c.93-.44,1.71-.96,2.34-1.55.63-.59,1.21-1.29,1.76-2.09,0-.01.01-.02.04-.02h.1s.06.02.06.06v3.51h2.55s.06.02.06.06v.94s-.02.06-.06.06h-2.55v6.23c0,1.03.42,1.54,1.26,1.54.47,0,.95-.15,1.44-.45.08-.03.1,0,.08.09-.58,1.7-1.6,2.55-3.05,2.55-.83,0-1.48-.3-1.95-.91s-.71-1.44-.71-2.51v-6.53h-1.34ZM34.23,38.38c.04-.14.08-.32.13-.53.05-.21.09-.45.13-.7.04-.25.07-.51.11-.78.03-.27.05-.54.05-.79v-4c0-.67-.17-1.75-.51-3.23v-.11s.02-.06.06-.06h3.3s.06.02.06.06v7.34c0,.57.05,1.13.16,1.67.1.54.19.96.27,1.26l.08.3v.11s-.02.06-.06.06h-3.81s-.06-.02-.06-.06v-.09s.01-.05.04-.19l.06-.26ZM34.14,24.73c0-.52.19-1.02.54-1.4.17-.18.36-.32.58-.42.23-.1.47-.15.72-.15.26,0,.5.05.72.15.45.2.8.58.97,1.05.09.24.14.5.14.77,0,.28-.05.55-.15.78-.1.23-.23.45-.4.63-.16.18-.36.33-.58.43-.22.1-.46.15-.7.15-.25,0-.49-.05-.72-.15-.22-.1-.42-.25-.58-.43-.17-.19-.3-.4-.4-.63-.1-.24-.15-.5-.15-.78h0ZM38.78,29.25s-.06-.02-.06-.06v-.86s.01-.06.04-.06c.93-.44,1.71-.96,2.34-1.55.63-.59,1.21-1.29,1.76-2.09,0-.01.01-.02.04-.02h.1s.06.02.06.06v3.51h2.55s.06.02.06.06v.94s-.02.06-.06.06h-2.55v6.23c0,1.03.42,1.54,1.26,1.54.47,0,.95-.15,1.44-.45.08-.03.1,0,.08.09-.58,1.7-1.6,2.55-3.05,2.55-.83,0-1.48-.3-1.95-.91-.47-.61-.71-1.44-.71-2.51v-6.53h-1.34ZM49.95,28.18s.06.02.06.06v6.89c0,.67.15,1.16.45,1.48.3.31.69.47,1.17.47.26,0,.53-.05.82-.16.28-.11.58-.26.87-.46,0-.06,0-.1,0-.14,0-.04-.01-.08,0-.12-.01-.07-.02-.13-.02-.2v-4.42c0-.5-.05-1-.15-1.49-.08-.4-.17-.81-.26-1.21-.02-.11-.04-.23-.07-.34-.02-.07-.03-.14-.03-.21v-.09s.02-.06.06-.06h3.28s.06.02.06.06v7.34c0,.57.06,1.13.17,1.67s.2.96.28,1.26l.08.3v.11s-.02.06-.06.06h-2.68s-.06-.01-.06-.04c-.11-.25-.2-.52-.28-.78-.09-.29-.16-.59-.2-.89-.8,1.27-1.83,1.9-3.09,1.9-.47,0-.9-.08-1.29-.24-.39-.15-.74-.39-1.02-.7-.28-.31-.51-.68-.67-1.13-.16-.45-.24-.97-.24-1.55v-3.98c0-.5-.05-1-.15-1.49-.08-.4-.17-.81-.26-1.21-.02-.11-.04-.23-.07-.34-.02-.07-.03-.14-.03-.21v-.09s.02-.06.06-.06h3.3ZM57.33,29.25s-.06-.02-.06-.06v-.86s.01-.06.04-.06c.93-.44,1.71-.96,2.34-1.55.63-.59,1.21-1.29,1.76-2.09,0-.01.01-.02.04-.02h.1s.06.02.06.06v3.51h2.55s.06.02.06.06v.94s-.02.06-.06.06h-2.55v6.23c0,1.03.42,1.54,1.26,1.54.47,0,.95-.15,1.44-.45.08-.03.1,0,.08.09-.58,1.7-1.6,2.55-3.05,2.55-.83,0-1.48-.3-1.95-.91-.47-.61-.71-1.44-.71-2.51v-6.53h-1.34ZM65.07,33.57c0-.9.12-1.69.37-2.36.25-.68.6-1.25,1.07-1.72.48-.45,1.05-.81,1.66-1.06.62-.25,1.28-.37,1.99-.37s1.36.12,1.97.37c.61.25,1.18.61,1.66,1.06.98,1,1.48,2.36,1.48,4.09s-.49,3.13-1.48,4.13c-1.02,1-2.23,1.5-3.63,1.5s-2.65-.49-3.63-1.48c-.97-1-1.46-2.38-1.46-4.15h0ZM68.47,35.77c.12.69.31,1.26.59,1.72.28.46.64.7,1.1.7.6,0,1.06-.44,1.38-1.33.32-.9.49-2,.49-3.29s-.16-2.35-.49-3.23c-.32-.87-.78-1.3-1.38-1.3s-1.08.43-1.4,1.31c-.14.44-.25.94-.33,1.5-.08.57-.12,1.15-.12,1.73,0,.4.01.78.04,1.16.03.37.06.72.12,1.05"></path><path class="b" d="M71.67,80.38c.57-.6,1.31-.91,2.22-.91.59,0,1.35.2,2.28.6.02,0,.02.01.02.04l.02,1.96s-.01.04-.04.04h-.06s-.04,0-.04-.01c-.15-.26-.31-.51-.48-.75-.16-.23-.34-.45-.53-.66-.19-.21-.39-.37-.58-.47-.2-.1-.39-.15-.58-.15s-.36.06-.51.17c-.15.11-.27.27-.36.47-.1.2-.17.43-.21.71-.05.29-.07.59-.07.89.02.83.17,1.49.48,1.96.3.48.76.72,1.37.72s1.2-.24,1.78-.72l.05.03s.05.02.04.05c-.17.54-.49,1-.97,1.38-.47.39-1.03.59-1.67.59-.8,0-1.5-.3-2.11-.89-.6-.59-.89-1.43-.89-2.54s.28-1.9.85-2.51h0ZM77.32,82.86c0-.55.08-1.04.23-1.45.15-.42.37-.77.66-1.06.3-.28.64-.5,1.02-.65.38-.15.79-.23,1.22-.23s.83.08,1.21.23c.38.15.72.37,1.02.65.6.61.91,1.45.91,2.51s-.3,1.92-.91,2.54c-.63.61-1.37.92-2.23.92s-1.63-.3-2.23-.91c-.6-.61-.89-1.46-.89-2.55h0ZM79.41,84.21c.07.42.19.77.36,1.06.17.28.4.43.67.43.37,0,.65-.27.85-.81.2-.55.3-1.23.3-2.02s-.1-1.44-.3-1.98c-.2-.53-.48-.8-.85-.8s-.66.27-.86.8c-.09.27-.16.58-.2.92-.05.35-.07.71-.07,1.06,0,.25,0,.48.02.71.02.23.04.44.07.64h0ZM84.49,79.59s.01-.04.04-.04h2.02s.04.01.04.04v.99c.47-.74,1.1-1.1,1.88-1.1.28,0,.54.05.78.14.24.09.45.24.63.43.17.19.31.43.41.7.1.28.15.59.15.94v2.4c0,.31.03.61.09.91.06.3.11.55.16.74.02.09.03.16.04.21.01.05.02.1.02.13v.05s-.01.04-.04.04h-2.34s-.04-.01-.04-.04v-.07c.21-.91.31-1.57.31-1.98v-2.14c0-.41-.1-.72-.29-.91-.19-.2-.44-.3-.74-.31-.33,0-.67.14-1.04.42v2.94c0,.35.03.69.1,1.02.07.33.13.59.17.78l.05.18v.07s-.01.04-.04.04h-2.34s-.04-.01-.04-.04v-.05s0-.08.02-.13c.01-.05.03-.12.04-.21.05-.19.1-.44.16-.74.06-.3.09-.61.09-.91v-2.46c0-.31-.03-.61-.09-.91-.05-.25-.1-.5-.16-.74-.01-.07-.03-.14-.04-.21-.01-.04-.02-.09-.02-.13v-.05ZM92.4,80.38c.57-.6,1.31-.91,2.21-.91s1.58.32,2.05.95c.21.31.38.66.5,1.05.12.39.18.81.18,1.26,0,.03-.01.04-.04.04h-3.78c.06.69.25,1.24.55,1.63.3.39.73.59,1.28.59.6,0,1.21-.25,1.83-.76l.06.03s.05.02.04.05c-.18.53-.5,1-.98,1.41-.46.4-1.03.6-1.71.6-.8,0-1.51-.3-2.12-.89-.6-.61-.89-1.46-.89-2.54s.28-1.89.84-2.51ZM95.56,81.99c-.03-1.28-.36-1.92-.99-1.92-.37,0-.64.2-.81.6-.17.42-.26.93-.26,1.54v.14l2.06-.37ZM99.03,80.38c.57-.6,1.31-.91,2.22-.91.59,0,1.35.2,2.28.6.02,0,.02.01.02.04l.02,1.96s-.01.04-.04.04h-.06s-.04,0-.04-.01c-.15-.26-.31-.51-.48-.75-.16-.23-.34-.45-.53-.66-.19-.21-.39-.37-.58-.47-.2-.1-.39-.15-.58-.15s-.36.06-.51.17c-.15.11-.27.27-.36.47-.1.2-.17.43-.21.71-.05.29-.07.59-.07.89.02.83.17,1.49.48,1.96.3.48.76.72,1.37.72s1.2-.24,1.78-.72l.05.03s.05.02.04.05c-.17.54-.49,1-.97,1.38-.47.39-1.03.59-1.67.59-.8,0-1.5-.3-2.11-.89-.6-.59-.89-1.43-.89-2.54s.28-1.9.85-2.51h0ZM104.54,80.2s-.04-.01-.04-.04v-.53s0-.04.02-.04c.57-.27,1.05-.59,1.44-.95.39-.36.75-.79,1.08-1.28,0,0,0-.01.02-.01h.06s.04.01.04.04v2.15h1.56s.04.01.04.04v.58s-.01.04-.04.04h-1.56v3.82c0,.63.26.95.78.95.29,0,.58-.09.88-.28.05-.02.06,0,.05.05-.36,1.04-.98,1.56-1.87,1.56-.51,0-.91-.19-1.2-.56-.29-.37-.44-.89-.44-1.54v-4.01h-.82ZM109.6,84.21c0-.72.25-1.25.75-1.59h0c.47-.36,1.05-.56,1.65-.55h.16c.06,0,.11,0,.16.01.17,0,.33.03.5.05.16.03.3.07.42.12v-.7c0-.95-.19-1.43-.57-1.43-.32,0-.78.23-1.37.7-.26.19-.51.4-.75.6-.18.16-.31.28-.37.38,0,0,0,.01-.02.01h-.06s-.04-.01-.04-.04v-1.79s0-.04.02-.04c1.01-.32,1.91-.49,2.7-.49s1.33.2,1.71.59.56.93.56,1.6v2.69c0,.57.13.85.38.85.1,0,.2-.03.31-.09.03-.02.05,0,.05.04l.02.04c-.04.32-.17.57-.39.77-.22.2-.5.3-.84.3-.65,0-1.07-.31-1.25-.93-.41.64-1,.96-1.78.96-.6,0-1.08-.21-1.42-.63-.35-.41-.53-.9-.53-1.46h0ZM111.48,83.95c0,.36.09.65.28.89.19.23.43.35.73.35.29,0,.54-.13.75-.38v-2.05h-.13s-.06,0-.1-.01h.01c-.05,0-.11-.02-.16-.02-.05,0-.1,0-.15,0-.35,0-.64.1-.88.31-.24.21-.36.51-.36.93ZM116.54,79.59s.01-.04.04-.04h2.02s.04.01.04.04v.99c.47-.74,1.1-1.1,1.89-1.1.28,0,.54.05.78.14.24.09.45.24.63.43.18.19.31.43.41.7.1.28.15.59.15.94v2.4c0,.31.03.61.09.91.06.3.11.55.16.74.02.09.03.16.04.21.01.05.02.1.02.13v.05s-.01.04-.04.04h-2.34s-.04-.01-.04-.04v-.07c.21-.91.31-1.57.31-1.98v-2.14c0-.41-.1-.72-.29-.91s-.44-.3-.74-.31c-.33,0-.67.14-1.04.42v2.94c0,.35.03.69.1,1.02.07.33.13.59.17.78l.05.18v.07s-.01.04-.04.04h-2.34s-.04-.01-.04-.04v-.05s0-.08.02-.13c.01-.05.03-.12.04-.21.05-.19.1-.44.16-.74.06-.3.09-.61.09-.91v-2.46c0-.31-.03-.61-.09-.91-.05-.25-.1-.5-.16-.74-.01-.07-.03-.14-.04-.21-.01-.04-.02-.09-.02-.13v-.05ZM123.62,82.87c0-.55.06-1.03.18-1.45.12-.41.3-.77.54-1.08.46-.59,1.03-.88,1.72-.88.35,0,.67.08.95.24.29.16.54.38.73.64v-1.64c0-.2-.02-.42-.07-.65-.03-.19-.08-.38-.14-.57l-.16-.49s-.04-.1-.05-.14l-.05-.14s0-.05.04-.05l2.18-.28s.04.01.04.04v7.67c0,.41.1,1.07.31,1.98v.07s-.01.04-.04.04h-1.59s-.04,0-.04-.03l-.17-.39c-.04-.1-.08-.18-.11-.26-.03-.07-.05-.15-.07-.22-.23.36-.49.62-.78.79-.29.17-.63.25-1.01.25-.65,0-1.22-.3-1.69-.91-.49-.61-.73-1.46-.73-2.54h0ZM125.87,84.57c.19.46.51.7.94.7.14,0,.3-.04.47-.12.18-.09.34-.2.49-.34,0,0,0-.02,0-.02,0,0,0-.02,0-.03,0-.05-.01-.1-.01-.15v-3.55c-.3-.28-.6-.42-.91-.42-.43,0-.75.21-.95.62-.21.41-.31.95-.31,1.6,0,.33.02.65.07.94.05.29.12.55.23.78h0ZM130.74,82.86c0-.55.08-1.04.23-1.45.15-.42.37-.77.66-1.06.3-.28.64-.5,1.02-.65.38-.15.79-.23,1.22-.23s.83.08,1.21.23c.38.15.72.37,1.02.65.6.61.91,1.45.91,2.51s-.3,1.92-.91,2.54c-.63.61-1.37.92-2.23.92s-1.63-.3-2.23-.91c-.6-.61-.89-1.46-.89-2.55h0ZM132.83,84.21c.07.42.19.77.36,1.06.17.28.4.43.67.43.37,0,.65-.27.85-.81.2-.55.3-1.23.3-2.02s-.1-1.44-.3-1.98c-.2-.53-.48-.8-.85-.8s-.66.27-.86.8c-.09.27-.16.58-.2.92-.05.35-.07.71-.07,1.06,0,.25,0,.48.02.71.02.23.04.44.07.64h0ZM140.48,79.64s.01-.04.04-.04l2.04-.05s.04.01.04.04v.78c.2-.27.45-.5.75-.66.3-.16.63-.24.96-.24.33,0,.63.07.91.22.28.15.54.36.76.64.45.6.68,1.42.68,2.46,0,.56-.06,1.06-.19,1.48-.13.43-.31.8-.56,1.12-.5.6-1.08.91-1.74.91-.33,0-.61-.06-.87-.18-.25-.12-.48-.31-.7-.57v1.14c0,.31.03.61.09.91.06.3.11.55.16.74.02.09.03.16.04.21s.02.1.02.13v.05s-.01.04-.04.04h-2.34s-.04-.01-.04-.04v-.05s0-.08.02-.13.03-.12.04-.21c.05-.19.1-.44.16-.74.06-.3.09-.61.09-.91v-5.02c0-.16-.01-.33-.04-.53-.02-.19-.05-.38-.09-.57-.04-.18-.07-.35-.1-.51-.02-.11-.05-.22-.07-.32,0-.02-.01-.03-.01-.05v-.05ZM143.43,85.28c.44,0,.76-.23.95-.68.22-.46.33-1.05.33-1.76,0-.32-.02-.61-.07-.88s-.12-.51-.22-.7c-.1-.2-.23-.35-.38-.46-.15-.11-.33-.16-.54-.16-.16,0-.31.04-.46.11-.17.09-.32.2-.46.32v3.9c.14.1.27.17.42.23s.28.09.42.09h0ZM147.65,85.81c.02-.09.05-.2.08-.33.03-.13.05-.27.08-.43.02-.15.05-.31.07-.48.02-.17.03-.33.03-.49v-2.46c0-.31-.03-.61-.09-.91-.05-.25-.1-.5-.16-.74-.01-.07-.03-.14-.04-.21-.01-.04-.02-.09-.02-.13v-.05s.01-.04.04-.04h2.02s.04.01.04.04v1.09c.25-.46.53-.79.84-.99.31-.2.61-.3.88-.3.21,0,.46.05.74.14.02,0,.02.01.02.04l-.27,2.02s-.01.04-.04.04h-.07c-.17-.2-.36-.37-.58-.5-.22-.14-.47-.21-.72-.21-.13,0-.26.02-.39.07-.14.05-.27.12-.41.22v2.88c0,.35.03.69.1,1.02.07.33.13.59.17.78l.05.18v.07s-.01.04-.04.04h-2.34s-.04-.01-.04-.04v-.05s0-.03.02-.12l.04-.16ZM152.81,82.86c0-.55.08-1.04.23-1.45.15-.42.37-.77.66-1.06.3-.28.64-.5,1.02-.65.38-.15.78-.23,1.22-.23s.83.08,1.21.23c.38.15.72.37,1.02.65.6.61.91,1.45.91,2.51s-.3,1.92-.91,2.54c-.63.61-1.37.92-2.23.92s-1.63-.3-2.23-.91c-.6-.61-.89-1.46-.89-2.55h0ZM154.9,84.21c.07.42.19.77.36,1.06s.4.43.67.43c.37,0,.65-.27.85-.81.2-.55.3-1.23.3-2.02s-.1-1.44-.3-1.98c-.2-.53-.48-.8-.85-.8s-.66.27-.86.8c-.09.27-.16.58-.2.92-.05.35-.07.71-.07,1.06,0,.25,0,.48.02.71.02.23.04.44.07.64h0ZM159.94,79.64s.01-.04.04-.04l2.04-.05s.04.01.04.04v.78c.2-.27.45-.5.75-.66.29-.16.63-.24.96-.24.33,0,.63.07.91.22.28.15.53.36.76.64.45.6.68,1.42.68,2.46,0,.56-.06,1.06-.19,1.48-.13.43-.31.8-.56,1.12-.5.6-1.08.91-1.74.91-.33,0-.61-.06-.87-.18s-.48-.31-.7-.57v1.14c0,.31.03.61.09.91.06.3.11.55.16.74.02.09.03.16.04.21s.02.1.02.13v.05s-.01.04-.04.04h-2.34s-.04-.01-.04-.04v-.05s0-.08.02-.13c.01-.05.03-.12.04-.21.05-.19.1-.44.16-.74.06-.3.09-.61.09-.91v-5.02c0-.16-.01-.33-.04-.53-.02-.19-.05-.38-.09-.57-.04-.18-.07-.35-.1-.51-.02-.11-.05-.22-.07-.32,0-.02-.01-.03-.01-.05v-.05ZM162.89,85.28c.44,0,.76-.23.95-.68.22-.46.33-1.05.33-1.76,0-.32-.02-.61-.07-.88s-.12-.51-.22-.7c-.1-.2-.23-.35-.38-.46-.15-.11-.33-.16-.54-.16-.16,0-.31.04-.46.11-.17.09-.32.2-.46.32v3.9c.14.1.27.17.42.23.14.06.28.09.42.09h0ZM166.92,82.86c0-.55.08-1.04.23-1.45.15-.42.37-.77.66-1.06.3-.28.64-.5,1.02-.65.38-.15.79-.23,1.22-.23s.83.08,1.21.23c.38.15.72.37,1.02.65.6.61.91,1.45.91,2.51s-.3,1.92-.91,2.54c-.63.61-1.37.92-2.23.92s-1.63-.3-2.23-.91c-.6-.61-.89-1.46-.89-2.55h0ZM169,84.21c.07.42.19.77.36,1.06s.4.43.67.43c.37,0,.65-.27.85-.81.2-.55.3-1.23.3-2.02s-.1-1.44-.3-1.98c-.2-.53-.48-.8-.85-.8s-.66.27-.86.8c-.09.27-.16.58-.2.92-.05.35-.07.71-.07,1.06,0,.25,0,.48.02.71.02.23.04.44.07.64h0ZM169.09,78.01s-.09.01-.11-.02c-.03-.03-.05-.07-.05-.12,0-.05,0-.1.02-.15.02-.05.05-.1.1-.14l1.31-.88c.09-.04.16-.08.23-.11.07-.03.14-.04.21-.04.15,0,.26.08.33.24.13.32-.02.54-.45.68l-1.6.54ZM174.08,81.51c0-.64.23-1.14.68-1.5s1.06-.54,1.83-.54,1.46.16,2.15.49c.02,0,.02.01.02.04v1.73s-.01.04-.04.04h-.07c-.41-.53-.8-.94-1.15-1.24-.35-.3-.71-.45-1.08-.45-.23,0-.43.06-.58.17s-.24.28-.24.51c0,.25.11.46.34.61.23.15.6.32,1.12.51,0,0,.01,0,.02,0,0,0,0,0,.02,0,.02,0,.04,0,.05.01.68.27,1.17.58,1.46.93.29.35.44.78.44,1.27,0,.72-.24,1.26-.72,1.63-.46.38-1.03.57-1.71.57-.72,0-1.5-.19-2.35-.57-.02,0-.02-.01-.02-.04v-1.81s.01-.04.04-.04h.05s.02,0,.02.01c.02.02.04.05.08.1l.17.2.3.3s.05.07.1.12l.17.18c.06.06.1.11.14.14l.12.11.06.05s.1.08.15.12c.05.03.1.07.14.12.17.12.32.21.47.25.14.04.31.07.49.09.24,0,.44-.06.61-.19.17-.13.25-.32.25-.57,0-.14-.03-.26-.09-.36-.06-.1-.17-.2-.33-.3-.13-.09-.27-.17-.42-.24-.14-.06-.33-.14-.55-.22l-.13-.05c-.67-.27-1.17-.58-1.49-.93-.33-.35-.49-.78-.49-1.29h0ZM180.15,85.81c.02-.09.05-.2.08-.33.03-.13.05-.27.08-.43.02-.15.05-.31.07-.48.02-.17.03-.33.03-.49v-2.46c0-.41-.1-1.07-.31-1.98v-.07s.01-.04.04-.04h2.03s.04.01.04.04v4.51c0,.35.03.69.1,1.02.06.33.12.59.17.78l.05.18v.07s-.01.04-.04.04h-2.34s-.04-.01-.04-.04v-.05s0-.03.02-.12l.04-.16ZM180.09,77.43c0-.32.12-.63.33-.86.1-.11.22-.19.36-.26.14-.06.28-.09.44-.09s.31.03.44.09c.28.13.49.36.6.64.06.15.08.31.08.47,0,.18-.03.34-.09.48-.06.14-.14.27-.24.39-.1.11-.22.2-.36.26-.13.06-.28.09-.43.09-.16,0-.31-.03-.44-.09-.14-.06-.26-.15-.36-.26-.1-.11-.19-.25-.24-.39-.06-.15-.09-.32-.09-.48ZM183.21,80.2s-.04-.01-.04-.04v-.53s0-.04.02-.04c.57-.27,1.05-.59,1.44-.95.39-.36.75-.79,1.08-1.28,0,0,0-.01.02-.01h.06s.04.01.04.04v2.15h1.56s.04.01.04.04v.58s-.01.04-.04.04h-1.56v3.82c0,.63.26.95.78.95.29,0,.58-.09.88-.28.05-.02.06,0,.05.05-.36,1.04-.98,1.56-1.87,1.56-.51,0-.91-.19-1.2-.56-.29-.37-.44-.89-.44-1.54v-4.01h-.82ZM188.23,82.86c0-.55.08-1.04.23-1.45s.37-.77.66-1.06c.3-.28.64-.5,1.02-.65.38-.15.79-.23,1.22-.23s.83.08,1.21.23c.38.15.72.37,1.02.65.6.61.91,1.45.91,2.51s-.3,1.92-.91,2.54c-.63.61-1.37.92-2.23.92s-1.63-.3-2.23-.91c-.6-.61-.89-1.46-.89-2.55h0ZM190.32,84.21c.07.42.19.77.36,1.06s.4.43.67.43c.37,0,.65-.27.85-.81.2-.55.3-1.23.3-2.02s-.1-1.44-.3-1.98c-.2-.53-.48-.8-.85-.8s-.66.27-.86.8c-.09.27-.16.58-.2.92-.05.35-.07.71-.07,1.06,0,.25,0,.48.02.71.02.23.04.44.07.64h0ZM195.39,81.51c0-.64.23-1.14.68-1.5.45-.36,1.06-.54,1.83-.54s1.46.16,2.15.49c.02,0,.02.01.02.04v1.73s-.01.04-.04.04h-.05s-.02,0-.02-.01c-.41-.52-.8-.92-1.15-1.22-.35-.3-.71-.45-1.08-.45-.23,0-.43.06-.58.17-.16.11-.24.28-.24.51,0,.25.11.46.34.61.23.15.6.32,1.12.51,0,0,.01,0,.02,0,0,0,0,0,.02,0,.02,0,.04,0,.05.01.68.27,1.17.58,1.46.93s.44.78.44,1.27c0,.72-.24,1.26-.72,1.63-.46.38-1.03.57-1.71.57-.72,0-1.5-.19-2.35-.57-.02,0-.02-.01-.02-.04v-1.81s.01-.04.04-.04h.05s.02,0,.02.01c.02.02.04.05.08.1l.17.2.3.3s.05.07.1.12l.17.18c.06.06.1.11.14.14l.12.11.06.05s.1.08.15.12c.05.03.1.07.14.12.17.12.32.21.47.25.14.04.31.07.49.09.24,0,.44-.06.61-.19s.25-.32.25-.57c0-.14-.03-.26-.09-.36-.06-.1-.17-.2-.33-.3-.13-.09-.27-.17-.42-.24-.14-.06-.33-.14-.55-.22l-.13-.05c-.67-.27-1.17-.58-1.49-.93-.33-.35-.49-.78-.49-1.29"></path><path d="M0,71.64l.48-1.49c.34-.99.66-2.12.94-3.36s.42-2.42.42-3.52v-12.69c0-.59-.07-1.23-.22-1.93s-.31-1.27-.48-1.7c-.07-.28-.17-.55-.28-.82-.1-.23-.19-.47-.28-.71-.05-.15-.1-.29-.15-.44-.05-.14-.07-.22-.07-.25v-.15c0-.08.04-.11.11-.11h7.03c.07,0,.11.03.11.08l7.47,19.34,6.95-19.34c0-.05.04-.08.11-.08h6.59c.07,0,.11.04.11.11v.15c0,.1-.02.23-.06.38-.04.15-.08.36-.13.61-.18.73-.35,1.46-.5,2.2-.18.87-.28,1.76-.28,2.66v15.29c0,.89.09,1.78.28,2.68s.35,1.62.5,2.18c.05.26.09.46.13.61.04.15.06.28.06.38v.15c0,.08-.04.11-.11.11h-7.54c-.07,0-.11-.04-.11-.11v-.19l.15-.54c.15-.54.32-1.29.52-2.26.2-.97.29-1.98.29-3.02v-15.67l-7.76,21.71c0,.05-.04.08-.11.08l-1.8-.04-.22.04c-.07,0-.11-.03-.11-.08L3.72,50.12v13.15c0,1.1.13,2.27.4,3.52.27,1.25.58,2.37.92,3.36l.52,1.49v.23c0,.08-.04.11-.11.11H.11c-.07,0-.11-.04-.11-.11v-.23ZM31.38,66.25c0-2.09.77-3.63,2.32-4.63v.04c1.5-1.1,3.19-1.64,5.08-1.64h.5c.18,0,.35.01.5.04.51.03,1.02.08,1.53.15.5.08.94.19,1.31.34v-2.03c0-2.78-.59-4.17-1.77-4.17-.98,0-2.39.68-4.23,2.03-.98.71-1.75,1.3-2.32,1.76-.56.46-.94.83-1.14,1.11,0,.03-.02.04-.07.04h-.18c-.07,0-.11-.04-.11-.12v-5.2c0-.08.02-.11.07-.11,3.11-.94,5.89-1.41,8.31-1.41s4.11.57,5.26,1.72c1.15,1.15,1.73,2.7,1.73,4.66v7.84c0,1.66.39,2.49,1.18,2.49.29,0,.61-.09.96-.27.1-.05.15-.01.15.12l.07.11c-.12.92-.52,1.67-1.2,2.26-.67.59-1.54.88-2.59.88-2.01,0-3.3-.9-3.86-2.71-1.25,1.86-3.08,2.79-5.48,2.79-1.86,0-3.32-.61-4.38-1.84-1.08-1.2-1.62-2.61-1.62-4.24h0ZM37.16,65.49c0,1.04.29,1.9.86,2.58s1.33,1.01,2.26,1.01c.88,0,1.66-.37,2.32-1.11v-5.96h-.4c-.12,0-.22-.01-.29-.04h.04c-.17-.03-.34-.04-.5-.06-.15-.01-.31-.02-.46-.02-1.08,0-1.99.3-2.72.9-.74.6-1.1,1.5-1.1,2.7h0ZM52.24,70.91c.07-.25.15-.57.24-.96.09-.38.17-.8.24-1.24.07-.45.14-.91.2-1.4s.09-.96.09-1.41v-7.15c0-.89-.09-1.78-.28-2.66-.18-.88-.35-1.6-.5-2.16-.04-.2-.08-.41-.13-.61-.04-.15-.06-.28-.06-.38v-.15c0-.08.04-.11.11-.11h6.22c.07,0,.11.04.11.11v3.17c.76-1.35,1.62-2.31,2.59-2.89.97-.57,1.87-.86,2.7-.86.66,0,1.42.14,2.28.42.05,0,.07.04.07.11l-.85,5.89c0,.08-.04.11-.11.11h-.15l-.07-.04c-.49-.54-1.09-1.01-1.78-1.41-.7-.41-1.44-.61-2.23-.61-.39,0-.8.07-1.21.21-.42.14-.83.35-1.25.63v8.37c0,1.02.1,2.01.31,2.98.21.97.39,1.72.53,2.26l.15.54v.19c0,.08-.04.11-.11.11h-7.21c-.07,0-.11-.04-.11-.11v-.15s.02-.09.07-.34l.11-.46ZM67,54.59c-.07,0-.11-.04-.11-.11v-1.53c0-.08.02-.12.07-.12,1.77-.79,3.24-1.71,4.43-2.77,1.19-1.06,2.3-2.3,3.33-3.73,0-.03.02-.04.07-.04h.18c.07,0,.11.04.11.11v6.27h4.82c.07,0,.11.04.11.11v1.68c0,.08-.04.11-.11.11h-4.82v11.13c0,1.84.8,2.75,2.39,2.75.88,0,1.79-.27,2.72-.8.15-.05.2,0,.15.15-1.1,3.03-3.03,4.55-5.78,4.55-1.57,0-2.8-.54-3.7-1.62-.9-1.08-1.34-2.58-1.34-4.49v-11.66h-2.54ZM82.12,44.34c0-.08.04-.11.11-.11l6.36-.76c.07,0,.11.04.11.11v11.97c1.55-2.06,3.47-3.1,5.78-3.1.86,0,1.66.14,2.41.42.75.28,1.39.7,1.93,1.26.54.56.96,1.24,1.27,2.04.31.8.46,1.71.46,2.73v7c0,.89.09,1.78.28,2.66.18.88.35,1.6.5,2.16.05.26.09.46.13.61.04.15.06.28.06.38v.15c0,.08-.04.11-.11.11h-7.21c-.07,0-.11-.04-.11-.11v-.19c.64-2.65.96-4.57.96-5.77v-6.23c0-1.2-.31-2.08-.92-2.66-.61-.57-1.39-.86-2.32-.86-1.03,0-2.06.34-3.09,1.03v8.72c0,.89.09,1.78.28,2.66.18.88.35,1.6.5,2.16.05.26.09.46.13.61.04.15.06.28.06.38v.15c0,.08-.04.11-.11.11h-7.21c-.07,0-.11-.04-.11-.11v-.19c.64-2.65.96-4.57.96-5.77v-15.67c0-.59-.04-1.17-.13-1.76-.08-.55-.18-1.1-.29-1.64-.1-.45-.21-.9-.33-1.34-.11-.38-.19-.66-.24-.84,0-.03,0-.05-.02-.08-.01-.02-.02-.05-.02-.08l-.04-.15ZM103.5,66.25c0-2.09.77-3.63,2.32-4.63v.04c1.5-1.1,3.19-1.64,5.08-1.64h.5c.18,0,.35.01.5.04.51.03,1.02.08,1.53.15.5.08.94.19,1.31.34v-2.03c0-2.78-.59-4.17-1.77-4.17-.98,0-2.39.68-4.23,2.03-.98.71-1.75,1.3-2.32,1.76-.56.46-.94.83-1.14,1.11,0,.03-.02.04-.07.04h-.18c-.07,0-.11-.04-.11-.12v-5.2c0-.08.02-.11.07-.11,3.11-.94,5.89-1.41,8.31-1.41s4.11.57,5.26,1.72,1.73,2.7,1.73,4.66v7.84c0,1.66.39,2.49,1.18,2.49.29,0,.61-.09.96-.27.1-.05.15-.01.15.12l.07.11c-.12.92-.52,1.67-1.2,2.26-.67.59-1.54.88-2.59.88-2.01,0-3.3-.9-3.86-2.71-1.25,1.86-3.08,2.79-5.48,2.79-1.86,0-3.32-.61-4.38-1.84-1.08-1.2-1.62-2.61-1.62-4.24h0ZM109.27,65.49c0,1.04.29,1.9.86,2.58.58.68,1.33,1.01,2.26,1.01.88,0,1.66-.37,2.32-1.11v-5.96h-.4c-.12,0-.22-.01-.29-.04h.04c-.17-.03-.34-.04-.5-.06-.15-.01-.31-.02-.46-.02-1.08,0-1.99.3-2.72.9-.74.6-1.1,1.5-1.1,2.7h0ZM131.97,71.64l.48-1.49c.34-.99.66-2.12.94-3.36.28-1.25.42-2.42.42-3.52v-12.69c0-.59-.07-1.23-.22-1.93s-.31-1.27-.48-1.7c-.07-.28-.17-.55-.28-.82-.1-.23-.19-.47-.28-.71-.05-.15-.1-.3-.15-.44-.05-.14-.07-.22-.07-.25v-.15c0-.08.04-.11.11-.11h7.03c.07,0,.11.03.11.08l7.47,19.34,6.95-19.34c0-.05.04-.08.11-.08h6.59c.07,0,.11.04.11.11v.15c0,.1-.02.23-.06.38-.04.15-.08.36-.13.61-.18.73-.35,1.46-.5,2.2-.18.87-.28,1.76-.28,2.66v15.29c0,.89.09,1.78.28,2.68s.35,1.62.5,2.18c.05.26.09.46.13.61.04.15.06.28.06.38v.15c0,.08-.04.11-.11.11h-7.54c-.07,0-.11-.04-.11-.11v-.19l.15-.54c.15-.54.32-1.29.51-2.26.2-.97.29-1.98.29-3.02v-15.67l-7.76,21.71c0,.05-.04.08-.11.08l-1.8-.04-.22.04c-.07,0-.11-.03-.11-.08l-8.31-21.79v13.15c0,1.1.13,2.27.4,3.52.27,1.25.58,2.37.92,3.36l.52,1.49v.23c0,.08-.04.11-.11.11h-5.33c-.07,0-.11-.04-.11-.11v-.23ZM165.78,55.09c1.77-1.76,4.03-2.64,6.81-2.64s4.86.92,6.33,2.75c.66.89,1.18,1.91,1.55,3.06.37,1.15.55,2.37.55,3.67,0,.08-.04.11-.11.11h-11.66c.2,2.01.76,3.59,1.69,4.74.93,1.15,2.24,1.72,3.94,1.72,1.86,0,3.74-.74,5.63-2.22l.18.08c.12,0,.16.05.11.15-.54,1.55-1.55,2.92-3.02,4.09-1.42,1.17-3.18,1.76-5.26,1.76-2.48,0-4.66-.87-6.55-2.6-1.84-1.78-2.76-4.24-2.76-7.38s.86-5.49,2.57-7.3h0ZM175.53,59.79c-.1-3.72-1.12-5.58-3.05-5.58-1.15,0-1.99.59-2.5,1.76-.54,1.22-.81,2.71-.81,4.47v.42l6.36-1.07ZM183.3,52.79c0-.08.04-.11.11-.11h6.22c.07,0,.11.04.11.11v2.87c1.45-2.14,3.38-3.21,5.81-3.21.86,0,1.66.14,2.41.42.75.28,1.39.7,1.93,1.26.54.56.96,1.24,1.27,2.04.31.8.46,1.71.46,2.73v7c0,.89.09,1.78.28,2.66.18.88.35,1.6.5,2.16.05.26.09.46.13.61.04.15.06.28.06.38v.15c0,.08-.04.11-.11.11h-7.21c-.07,0-.11-.04-.11-.11v-.19c.64-2.65.96-4.57.96-5.77v-6.23c0-1.2-.29-2.08-.88-2.66-.59-.57-1.35-.87-2.28-.9-1.01,0-2.07.41-3.2,1.22v8.56c0,1.02.1,2.01.31,2.98.21.97.39,1.72.53,2.26l.15.54v.19c0,.08-.04.11-.11.11h-7.21c-.07,0-.11-.04-.11-.11v-.15c0-.1.02-.23.06-.38.04-.15.08-.36.13-.61.15-.56.31-1.28.5-2.16.18-.88.28-1.77.28-2.66v-7.15c0-.89-.09-1.78-.28-2.66-.18-.88-.35-1.6-.5-2.16-.04-.2-.08-.41-.13-.61-.04-.15-.06-.28-.06-.38v-.15ZM204.42,62.35c0-1.61.18-3.01.55-4.21s.92-2.24,1.66-3.13c1.42-1.71,3.19-2.56,5.3-2.56,1.08,0,2.06.23,2.94.69.88.45,1.64,1.09,2.24,1.87v-4.78c0-.59-.07-1.22-.2-1.89-.14-.68-.28-1.23-.42-1.66l-.48-1.41c-.05-.14-.11-.28-.17-.42-.06-.15-.12-.29-.17-.42-.05-.1-.01-.15.11-.15l6.73-.8c.07,0,.11.04.11.11v22.33c0,1.2.32,3.12.96,5.77v.19c0,.08-.04.11-.11.11h-4.89c-.07,0-.11-.03-.11-.08l-.51-1.15c-.12-.28-.23-.54-.33-.76-.09-.21-.17-.43-.22-.65-.71,1.04-1.51,1.81-2.41,2.29-.9.48-1.93.73-3.11.73-2.01,0-3.75-.88-5.22-2.64-1.5-1.78-2.24-4.24-2.24-7.38h0ZM211.33,67.28c.59,1.35,1.56,2.03,2.91,2.03.44,0,.92-.11,1.44-.34.51-.23,1.02-.56,1.51-.99,0-.03,0-.04-.02-.06-.01-.01-.02-.04-.02-.1-.03-.15-.04-.29-.04-.44v-10.34c-.93-.82-1.86-1.22-2.8-1.22-1.32,0-2.31.6-2.94,1.8-.64,1.2-.96,2.75-.96,4.66,0,.97.07,1.88.22,2.73.15.85.38,1.61.7,2.27h0ZM228.22,55.09c1.77-1.76,4.03-2.64,6.81-2.64s4.86.92,6.33,2.75c.66.89,1.18,1.91,1.55,3.06.37,1.15.55,2.37.55,3.67,0,.08-.04.11-.11.11h-11.66c.2,2.01.76,3.59,1.69,4.74.93,1.15,2.24,1.72,3.94,1.72,1.86,0,3.74-.74,5.63-2.22l.18.08c.12,0,.16.05.11.15-.54,1.55-1.55,2.92-3.02,4.09-1.42,1.17-3.18,1.76-5.26,1.76-2.48,0-4.66-.87-6.55-2.6-1.84-1.78-2.76-4.24-2.76-7.38s.86-5.49,2.58-7.3h0ZM237.97,59.79c-.1-3.72-1.12-5.58-3.05-5.58-1.15,0-1.99.59-2.5,1.76-.54,1.22-.81,2.71-.81,4.47v.42l6.36-1.07ZM245.73,58.37c0-1.86.7-3.31,2.1-4.36,1.4-1.04,3.27-1.57,5.63-1.57s4.49.47,6.62,1.41c.05,0,.07.04.07.11v5.05c0,.08-.04.12-.11.12h-.15l-.07-.04c-1.28-1.5-2.46-2.69-3.55-3.56-1.09-.87-2.2-1.3-3.33-1.3-.71,0-1.31.17-1.8.5-.49.33-.74.83-.74,1.49,0,.74.35,1.33,1.05,1.78.7.45,1.85.94,3.44,1.47.02,0,.04,0,.06.02.01.01.03.02.06.02.07,0,.12.01.15.04,2.11.79,3.61,1.69,4.51,2.71.9,1.02,1.34,2.26,1.34,3.71,0,2.09-.74,3.67-2.21,4.74-1.42,1.1-3.18,1.64-5.26,1.64-2.21,0-4.62-.55-7.25-1.64-.05,0-.07-.04-.07-.11v-5.28c0-.08.04-.11.11-.11h.15s.07.01.07.04c.05.05.13.15.26.29.12.14.29.34.52.59l.92.88c.05.08.15.19.29.34l.51.54c.17.18.32.32.44.42l.37.31.18.15c.15.13.3.24.46.34.16.1.3.22.42.34.52.36.99.6,1.44.73.44.13.94.22,1.51.27.74,0,1.36-.18,1.88-.55.51-.37.77-.92.77-1.66,0-.41-.09-.76-.28-1.05s-.52-.58-1.01-.86c-.4-.27-.84-.5-1.29-.69-.56-.22-1.12-.44-1.69-.65l-.4-.15c-2.06-.79-3.59-1.69-4.6-2.71-1.01-1.02-1.51-2.27-1.51-3.75"></path></svg> 